<svg width="1545" height="1354" viewBox="0 0 1545 1354" fill="none" xmlns="http://www.w3.org/2000/svg">
<mask id="mask0" mask-type="alpha" maskUnits="userSpaceOnUse" x="0" y="0" width="1546" height="1355">
<path d="M1545 963.078L0 1354L2.63914e-05 0.000527841L1545 0.000635533L1545 963.078Z" fill="#EB1900"/>
</mask>
<g mask="url(#mask0)">
<mask id="mask1" mask-type="alpha" maskUnits="userSpaceOnUse" x="0" y="-16" width="1546" height="1371">
<path d="M1545 958.62L0 1354L2.80846e-05 -15.4416L1545 -15.4415L1545 958.62Z" fill="#EB1900"/>
</mask>
<g mask="url(#mask1)">
<path d="M1545 972.382L-134 1454.1L-134 -2.92663L1545 -2.92664L1545 972.382Z" fill="#EB1900"/>
<g filter="url(#filter0_f)">
<path d="M1096.55 890.948C1300.98 864.076 1620.31 772.623 1262.24 621.78C904.167 470.937 674.27 531.103 840.069 784.374C832.504 795.76 538.256 761.243 499.762 701.124C451.643 625.976 418.402 176.68 1001.72 256.61C1468.38 320.555 1759.72 278.651 1770.46 352.205L674.27 256.61L372.958 496.077C215.287 261.751 67.0878 -158.943 735.662 32.8902C1404.24 224.724 1253.64 499.223 1204.31 528.372" stroke="url(#paint0_radial)" stroke-width="141"/>
</g>
</g>
<g opacity="0.7">
<mask id="mask2" mask-type="alpha" maskUnits="userSpaceOnUse" x="691" y="-401" width="1248" height="1250">
<ellipse cx="1314.7" cy="223.5" rx="623.576" ry="624.5" fill="#FEE701"/>
</mask>
<g mask="url(#mask2)">
<ellipse cx="1314.7" cy="223.5" rx="623.576" ry="624.5" fill="#EBD606"/>
<g filter="url(#filter1_f)">
<path d="M1847.04 272.424C1863.77 48.6211 1815.78 -320.874 1489.97 -8.42746C1164.16 304.019 1190.21 567.744 1615.87 496.814C1630.82 509.275 1497.08 801.984 1396.28 817.924C1270.28 837.849 587.898 691.855 870.261 116.205C1096.15 -344.314 1114.59 -664.717 1227.78 -646.34L778.976 457.391L1053.74 867.611C658.725 937.689 -12.8575 922.971 460.92 303.484C934.698 -316.004 1303.96 -48.7412 1333.88 14.3748" stroke="url(#paint1_radial)" stroke-width="271"/>
</g>
</g>
</g>
</g>
<defs>
<filter id="filter0_f" x="-81.4951" y="-336.326" width="2184.6" height="1547.17" filterUnits="userSpaceOnUse" color-interpolation-filters="sRGB">
<feFlood flood-opacity="0" result="BackgroundImageFix"/>
<feBlend mode="normal" in="SourceGraphic" in2="BackgroundImageFix" result="shape"/>
<feGaussianBlur stdDeviation="125" result="effect1_foregroundBlur"/>
</filter>
<filter id="filter1_f" x="-87.4463" y="-1032.62" width="2322.85" height="2314.37" filterUnits="userSpaceOnUse" color-interpolation-filters="sRGB">
<feFlood flood-opacity="0" result="BackgroundImageFix"/>
<feBlend mode="normal" in="SourceGraphic" in2="BackgroundImageFix" result="shape"/>
<feGaussianBlur stdDeviation="125" result="effect1_foregroundBlur"/>
</filter>
<radialGradient id="paint0_radial" cx="0" cy="0" r="1" gradientUnits="userSpaceOnUse" gradientTransform="translate(905.892 497.444) rotate(-91.9524) scale(513.576 705.407)">
<stop stop-color="#ED0000"/>
<stop offset="1" stop-color="#F5EC00"/>
</radialGradient>
<radialGradient id="paint1_radial" cx="0" cy="0" r="1" gradientUnits="userSpaceOnUse" gradientTransform="translate(1204.35 312.878) rotate(-166.337) scale(796.389 761.081)">
<stop stop-color="#ED0000"/>
<stop offset="1" stop-color="#F5EC00"/>
</radialGradient>
</defs>
</svg>
