<svg width="30" height="30" viewBox="0 0 30 30" fill="none" xmlns="http://www.w3.org/2000/svg">
<path d="M26.0877 0.75H3.92106C2.17939 0.75 0.754395 2.175 0.754395 3.91667V26.0833C0.754395 27.825 2.17939 29.25 3.92106 29.25H26.0877C27.8294 29.25 29.2544 27.825 29.2544 26.0833V3.91667C29.2544 2.175 27.8294 0.75 26.0877 0.75ZM17.4744 6.33917C17.9336 5.88 18.6936 5.88 19.1527 6.33917L20.5461 7.7325L21.9394 6.33917C22.3986 5.88 23.1586 5.88 23.6177 6.33917C24.0769 6.79833 24.0769 7.55833 23.6177 8.0175L22.2244 9.41083L23.6177 10.8042C24.0769 11.2633 24.0769 12.0233 23.6177 12.4825C23.1586 12.9417 22.3986 12.9417 21.9394 12.4825L20.5461 11.105L19.1527 12.4983C18.6936 12.9575 17.9336 12.9575 17.4744 12.4983C17.0152 12.0392 17.0152 11.2792 17.4744 10.82L18.8677 9.42667L17.4744 8.03333C16.9994 7.55833 16.9994 6.79833 17.4744 6.33917ZM7.08773 8.22333H12.6294C13.2786 8.22333 13.8169 8.76167 13.8169 9.41083C13.8169 10.06 13.2786 10.5983 12.6294 10.5983H7.08773C6.43856 10.5983 5.90023 10.06 5.90023 9.41083C5.90023 8.76167 6.43856 8.22333 7.08773 8.22333ZM13.0252 21.3333H11.0461V23.3125C11.0461 23.9617 10.5077 24.5 9.85856 24.5C9.20939 24.5 8.67106 23.9617 8.67106 23.3125V21.3333H6.69189C6.04273 21.3333 5.50439 20.795 5.50439 20.1458C5.50439 19.4967 6.04273 18.9583 6.69189 18.9583H8.67106V16.9792C8.67106 16.33 9.20939 15.7917 9.85856 15.7917C10.5077 15.7917 11.0461 16.33 11.0461 16.9792V18.9583H13.0252C13.6744 18.9583 14.2127 19.4967 14.2127 20.1458C14.2127 20.795 13.6744 21.3333 13.0252 21.3333ZM23.3169 23.3125H17.7752C17.1261 23.3125 16.5877 22.7742 16.5877 22.125C16.5877 21.4758 17.1261 20.9375 17.7752 20.9375H23.3169C23.9661 20.9375 24.5044 21.4758 24.5044 22.125C24.5044 22.7742 23.9661 23.3125 23.3169 23.3125ZM23.3169 19.3542H17.7752C17.1261 19.3542 16.5877 18.8158 16.5877 18.1667C16.5877 17.5175 17.1261 16.9792 17.7752 16.9792H23.3169C23.9661 16.9792 24.5044 17.5175 24.5044 18.1667C24.5044 18.8158 23.9661 19.3542 23.3169 19.3542Z" fill="white"/>
</svg>
