<svg width="22" height="22" viewBox="0 0 22 22" fill="none" xmlns="http://www.w3.org/2000/svg">
<path d="M20.9746 1.04048C20.3571 0.422982 19.3596 0.422982 18.7421 1.04048L10.9996 8.76715L3.25715 1.02465C2.63965 0.407148 1.64215 0.407148 1.02465 1.02465C0.407148 1.64215 0.407148 2.63965 1.02465 3.25715L8.76715 10.9997L1.02465 18.7422C0.407148 19.3597 0.407148 20.3572 1.02465 20.9747C1.64215 21.5922 2.63965 21.5922 3.25715 20.9747L10.9996 13.2322L18.7421 20.9747C19.3596 21.5922 20.3571 21.5922 20.9746 20.9747C21.5921 20.3572 21.5921 19.3597 20.9746 18.7422L13.2321 10.9997L20.9746 3.25715C21.5763 2.65548 21.5763 1.64215 20.9746 1.04048Z" fill="white"/>
</svg>
