<svg width="28" height="20" viewBox="0 0 28 20" fill="none" xmlns="http://www.w3.org/2000/svg">
<rect width="28" height="20" rx="2" fill="white"/>
<mask id="mask0" mask-type="alpha" maskUnits="userSpaceOnUse" x="0" y="0" width="28" height="20">
<rect width="28" height="20" rx="2" fill="white"/>
</mask>
<g mask="url(#mask0)">
<rect width="28" height="20" fill="#30C6E0"/>
<path fill-rule="evenodd" clip-rule="evenodd" d="M14 14C16.2091 14 18 12.2091 18 10C18 7.79086 16.2091 6 14 6C11.7909 6 10 7.79086 10 10C10 12.2091 11.7909 14 14 14Z" fill="#FFCD4B"/>
<path fill-rule="evenodd" clip-rule="evenodd" d="M12.3681 17.1495L14 14.7137L15.6318 17.1495L16.0451 14.2469L18.5722 15.7335L17.6852 12.9389L20.6071 13.1819L18.5954 11.0489L21.3333 10.0001L18.5954 8.95118L20.6071 6.81824L17.6852 7.06117L18.5722 4.26663L16.0451 5.75324L15.6318 2.85059L14 5.28644L12.3681 2.85059L11.9548 5.75324L9.4277 4.26663L10.3147 7.06117L7.39285 6.81824L9.40453 8.95118L6.66663 10.0001L9.40453 11.0489L7.39285 13.1819L10.3147 12.9389L9.4277 15.7335L11.9548 14.2469L12.3681 17.1495ZM18.6666 10.0001C18.6666 12.5774 16.5773 14.6667 14 14.6667C11.4226 14.6667 9.33329 12.5774 9.33329 10.0001C9.33329 7.42273 11.4226 5.33339 14 5.33339C16.5773 5.33339 18.6666 7.42273 18.6666 10.0001Z" fill="#FFCD4B"/>
<path fill-rule="evenodd" clip-rule="evenodd" d="M1.33337 1.66683C1.33337 1.48273 1.48261 1.3335 1.66671 1.3335H2.33337C2.51747 1.3335 2.66671 1.48273 2.66671 1.66683V2.3335C2.66671 2.51759 2.51747 2.66683 2.33337 2.66683H1.66671C1.48261 2.66683 1.33337 2.51759 1.33337 2.3335V1.66683ZM1.33337 4.3335C1.33337 4.1494 1.48261 4.00016 1.66671 4.00016H2.33337C2.51747 4.00016 2.66671 4.1494 2.66671 4.3335V5.00016C2.66671 5.18426 2.51747 5.3335 2.33337 5.3335H1.66671C1.48261 5.3335 1.33337 5.18426 1.33337 5.00016V4.3335ZM1.66671 6.66683C1.48261 6.66683 1.33337 6.81607 1.33337 7.00016V7.66683C1.33337 7.85092 1.48261 8.00016 1.66671 8.00016H2.33337C2.51747 8.00016 2.66671 7.85092 2.66671 7.66683V7.00016C2.66671 6.81607 2.51747 6.66683 2.33337 6.66683H1.66671ZM1.33337 9.66683C1.33337 9.48273 1.48261 9.3335 1.66671 9.3335H2.33337C2.51747 9.3335 2.66671 9.48273 2.66671 9.66683V10.3335C2.66671 10.5176 2.51747 10.6668 2.33337 10.6668H1.66671C1.48261 10.6668 1.33337 10.5176 1.33337 10.3335V9.66683ZM1.66671 12.0002C1.48261 12.0002 1.33337 12.1494 1.33337 12.3335V13.0002C1.33337 13.1843 1.48261 13.3335 1.66671 13.3335H2.33337C2.51747 13.3335 2.66671 13.1843 2.66671 13.0002V12.3335C2.66671 12.1494 2.51747 12.0002 2.33337 12.0002H1.66671ZM1.33337 15.0002C1.33337 14.8161 1.48261 14.6668 1.66671 14.6668H2.33337C2.51747 14.6668 2.66671 14.8161 2.66671 15.0002V15.6668C2.66671 15.8509 2.51747 16.0002 2.33337 16.0002H1.66671C1.48261 16.0002 1.33337 15.8509 1.33337 15.6668V15.0002ZM1.66671 17.3335C1.48261 17.3335 1.33337 17.4827 1.33337 17.6668V18.3335C1.33337 18.5176 1.48261 18.6668 1.66671 18.6668H2.33337C2.51747 18.6668 2.66671 18.5176 2.66671 18.3335V17.6668C2.66671 17.4827 2.51747 17.3335 2.33337 17.3335H1.66671ZM2.66671 16.3335C2.66671 16.1494 2.81595 16.0002 3.00004 16.0002H3.66671C3.8508 16.0002 4.00004 16.1494 4.00004 16.3335V17.0002C4.00004 17.1843 3.8508 17.3335 3.66671 17.3335H3.00004C2.81595 17.3335 2.66671 17.1843 2.66671 17.0002V16.3335ZM3.00004 13.3335C2.81595 13.3335 2.66671 13.4827 2.66671 13.6668V14.3335C2.66671 14.5176 2.81595 14.6668 3.00004 14.6668H3.66671C3.8508 14.6668 4.00004 14.5176 4.00004 14.3335V13.6668C4.00004 13.4827 3.8508 13.3335 3.66671 13.3335H3.00004ZM2.66671 11.0002C2.66671 10.8161 2.81595 10.6668 3.00004 10.6668H3.66671C3.8508 10.6668 4.00004 10.8161 4.00004 11.0002V11.6668C4.00004 11.8509 3.8508 12.0002 3.66671 12.0002H3.00004C2.81595 12.0002 2.66671 11.8509 2.66671 11.6668V11.0002ZM3.00004 8.00016C2.81595 8.00016 2.66671 8.1494 2.66671 8.3335V9.00016C2.66671 9.18426 2.81595 9.3335 3.00004 9.3335H3.66671C3.8508 9.3335 4.00004 9.18426 4.00004 9.00016V8.3335C4.00004 8.1494 3.8508 8.00016 3.66671 8.00016H3.00004ZM2.66671 5.66683C2.66671 5.48273 2.81595 5.3335 3.00004 5.3335H3.66671C3.8508 5.3335 4.00004 5.48273 4.00004 5.66683V6.3335C4.00004 6.51759 3.8508 6.66683 3.66671 6.66683H3.00004C2.81595 6.66683 2.66671 6.51759 2.66671 6.3335V5.66683ZM3.00004 2.66683C2.81595 2.66683 2.66671 2.81607 2.66671 3.00016V3.66683C2.66671 3.85092 2.81595 4.00016 3.00004 4.00016H3.66671C3.8508 4.00016 4.00004 3.85092 4.00004 3.66683V3.00016C4.00004 2.81607 3.8508 2.66683 3.66671 2.66683H3.00004Z" fill="#FFCD4B"/>
</g>
</svg>
