<svg width="28" height="20" viewBox="0 0 28 20" fill="none" xmlns="http://www.w3.org/2000/svg">
<rect width="28" height="20" rx="2" fill="white"/>
<mask id="mask0" mask-type="alpha" maskUnits="userSpaceOnUse" x="0" y="0" width="28" height="20">
<rect width="28" height="20" rx="2" fill="white"/>
</mask>
<g mask="url(#mask0)">
<path fill-rule="evenodd" clip-rule="evenodd" d="M28 0H0V1.33333H28V0ZM28 2.66667H0V4H28V2.66667ZM0 5.33333H28V6.66667H0V5.33333ZM28 8H0V9.33333H28V8ZM0 10.6667H28V12H0V10.6667ZM28 13.3333H0V14.6667H28V13.3333ZM0 16H28V17.3333H0V16ZM28 18.6667H0V20H28V18.6667Z" fill="#D02F44"/>
<rect width="12" height="9.33333" fill="#46467F"/>
<g filter="url(#filter0_d)">
<path fill-rule="evenodd" clip-rule="evenodd" d="M2.66671 1.99992C2.66671 2.36811 2.36823 2.66659 2.00004 2.66659C1.63185 2.66659 1.33337 2.36811 1.33337 1.99992C1.33337 1.63173 1.63185 1.33325 2.00004 1.33325C2.36823 1.33325 2.66671 1.63173 2.66671 1.99992ZM5.33337 1.99992C5.33337 2.36811 5.0349 2.66659 4.66671 2.66659C4.29852 2.66659 4.00004 2.36811 4.00004 1.99992C4.00004 1.63173 4.29852 1.33325 4.66671 1.33325C5.0349 1.33325 5.33337 1.63173 5.33337 1.99992ZM7.33337 2.66659C7.70156 2.66659 8.00004 2.36811 8.00004 1.99992C8.00004 1.63173 7.70156 1.33325 7.33337 1.33325C6.96518 1.33325 6.66671 1.63173 6.66671 1.99992C6.66671 2.36811 6.96518 2.66659 7.33337 2.66659ZM10.6667 1.99992C10.6667 2.36811 10.3682 2.66659 10 2.66659C9.63185 2.66659 9.33337 2.36811 9.33337 1.99992C9.33337 1.63173 9.63185 1.33325 10 1.33325C10.3682 1.33325 10.6667 1.63173 10.6667 1.99992ZM3.33337 3.99992C3.70156 3.99992 4.00004 3.70144 4.00004 3.33325C4.00004 2.96506 3.70156 2.66659 3.33337 2.66659C2.96518 2.66659 2.66671 2.96506 2.66671 3.33325C2.66671 3.70144 2.96518 3.99992 3.33337 3.99992ZM6.66671 3.33325C6.66671 3.70144 6.36823 3.99992 6.00004 3.99992C5.63185 3.99992 5.33337 3.70144 5.33337 3.33325C5.33337 2.96506 5.63185 2.66659 6.00004 2.66659C6.36823 2.66659 6.66671 2.96506 6.66671 3.33325ZM8.66671 3.99992C9.0349 3.99992 9.33337 3.70144 9.33337 3.33325C9.33337 2.96506 9.0349 2.66659 8.66671 2.66659C8.29852 2.66659 8.00004 2.96506 8.00004 3.33325C8.00004 3.70144 8.29852 3.99992 8.66671 3.99992ZM10.6667 4.66659C10.6667 5.03478 10.3682 5.33325 10 5.33325C9.63185 5.33325 9.33337 5.03478 9.33337 4.66659C9.33337 4.2984 9.63185 3.99992 10 3.99992C10.3682 3.99992 10.6667 4.2984 10.6667 4.66659ZM7.33337 5.33325C7.70156 5.33325 8.00004 5.03478 8.00004 4.66659C8.00004 4.2984 7.70156 3.99992 7.33337 3.99992C6.96518 3.99992 6.66671 4.2984 6.66671 4.66659C6.66671 5.03478 6.96518 5.33325 7.33337 5.33325ZM5.33337 4.66659C5.33337 5.03478 5.0349 5.33325 4.66671 5.33325C4.29852 5.33325 4.00004 5.03478 4.00004 4.66659C4.00004 4.2984 4.29852 3.99992 4.66671 3.99992C5.0349 3.99992 5.33337 4.2984 5.33337 4.66659ZM2.00004 5.33325C2.36823 5.33325 2.66671 5.03478 2.66671 4.66659C2.66671 4.2984 2.36823 3.99992 2.00004 3.99992C1.63185 3.99992 1.33337 4.2984 1.33337 4.66659C1.33337 5.03478 1.63185 5.33325 2.00004 5.33325ZM4.00004 5.99992C4.00004 6.36811 3.70156 6.66659 3.33337 6.66659C2.96518 6.66659 2.66671 6.36811 2.66671 5.99992C2.66671 5.63173 2.96518 5.33325 3.33337 5.33325C3.70156 5.33325 4.00004 5.63173 4.00004 5.99992ZM6.00004 6.66659C6.36823 6.66659 6.66671 6.36811 6.66671 5.99992C6.66671 5.63173 6.36823 5.33325 6.00004 5.33325C5.63185 5.33325 5.33337 5.63173 5.33337 5.99992C5.33337 6.36811 5.63185 6.66659 6.00004 6.66659ZM9.33337 5.99992C9.33337 6.36811 9.0349 6.66659 8.66671 6.66659C8.29852 6.66659 8.00004 6.36811 8.00004 5.99992C8.00004 5.63173 8.29852 5.33325 8.66671 5.33325C9.0349 5.33325 9.33337 5.63173 9.33337 5.99992ZM10 7.99992C10.3682 7.99992 10.6667 7.70144 10.6667 7.33325C10.6667 6.96506 10.3682 6.66659 10 6.66659C9.63185 6.66659 9.33337 6.96506 9.33337 7.33325C9.33337 7.70144 9.63185 7.99992 10 7.99992ZM8.00004 7.33325C8.00004 7.70144 7.70156 7.99992 7.33337 7.99992C6.96518 7.99992 6.66671 7.70144 6.66671 7.33325C6.66671 6.96506 6.96518 6.66659 7.33337 6.66659C7.70156 6.66659 8.00004 6.96506 8.00004 7.33325ZM4.66671 7.99992C5.0349 7.99992 5.33337 7.70144 5.33337 7.33325C5.33337 6.96506 5.0349 6.66659 4.66671 6.66659C4.29852 6.66659 4.00004 6.96506 4.00004 7.33325C4.00004 7.70144 4.29852 7.99992 4.66671 7.99992ZM2.66671 7.33325C2.66671 7.70144 2.36823 7.99992 2.00004 7.99992C1.63185 7.99992 1.33337 7.70144 1.33337 7.33325C1.33337 6.96506 1.63185 6.66659 2.00004 6.66659C2.36823 6.66659 2.66671 6.96506 2.66671 7.33325Z" fill="url(#paint0_linear)"/>
</g>
</g>
<defs>
<filter id="filter0_d" x="1.33337" y="1.33325" width="9.33333" height="7.66667" filterUnits="userSpaceOnUse" color-interpolation-filters="sRGB">
<feFlood flood-opacity="0" result="BackgroundImageFix"/>
<feColorMatrix in="SourceAlpha" type="matrix" values="0 0 0 0 0 0 0 0 0 0 0 0 0 0 0 0 0 0 127 0"/>
<feOffset dy="1"/>
<feColorMatrix type="matrix" values="0 0 0 0 0 0 0 0 0 0 0 0 0 0 0 0 0 0 0.06 0"/>
<feBlend mode="normal" in2="BackgroundImageFix" result="effect1_dropShadow"/>
<feBlend mode="normal" in="SourceGraphic" in2="effect1_dropShadow" result="shape"/>
</filter>
<linearGradient id="paint0_linear" x1="1.33337" y1="1.33325" x2="1.33337" y2="7.99992" gradientUnits="userSpaceOnUse">
<stop stop-color="white"/>
<stop offset="1" stop-color="#F0F0F0"/>
</linearGradient>
</defs>
</svg>
