<svg width="20" height="20" viewBox="0 0 20 20" fill="none" xmlns="http://www.w3.org/2000/svg">
<mask id="mask0" mask-type="alpha" maskUnits="userSpaceOnUse" x="0" y="0" width="20" height="20">
<circle cx="10" cy="10" r="10" fill="#C4C4C4"/>
</mask>
<g mask="url(#mask0)">
<rect width="28.2927" height="20" rx="2" fill="white"/>
<mask id="mask1" mask-type="alpha" maskUnits="userSpaceOnUse" x="0" y="0" width="29" height="20">
<rect width="28.2927" height="20" rx="2" fill="white"/>
</mask>
<g mask="url(#mask1)">
<path fill-rule="evenodd" clip-rule="evenodd" d="M28.2927 0H0V1.33333H28.2927V0ZM28.2927 2.66667H0V4H28.2927V2.66667ZM0 5.33333H28.2927V6.66667H0V5.33333ZM28.2927 8H0V9.33333H28.2927V8ZM0 10.6667H28.2927V12H0V10.6667ZM28.2927 13.3333H0V14.6667H28.2927V13.3333ZM0 16H28.2927V17.3333H0V16ZM28.2927 18.6667H0V20H28.2927V18.6667Z" fill="#D02F44"/>
<rect width="12.1254" height="9.33333" fill="#46467F"/>
<g filter="url(#filter0_d)">
<path fill-rule="evenodd" clip-rule="evenodd" d="M2.69444 1.99992C2.69444 2.36811 2.39284 2.66659 2.0208 2.66659C1.64876 2.66659 1.34717 2.36811 1.34717 1.99992C1.34717 1.63173 1.64876 1.33325 2.0208 1.33325C2.39284 1.33325 2.69444 1.63173 2.69444 1.99992ZM5.38898 1.99992C5.38898 2.36811 5.08738 2.66659 4.71534 2.66659C4.34331 2.66659 4.04171 2.36811 4.04171 1.99992C4.04171 1.63173 4.34331 1.33325 4.71534 1.33325C5.08738 1.33325 5.38898 1.63173 5.38898 1.99992ZM7.40989 2.66659C7.78192 2.66659 8.08352 2.36811 8.08352 1.99992C8.08352 1.63173 7.78192 1.33325 7.40989 1.33325C7.03785 1.33325 6.73625 1.63173 6.73625 1.99992C6.73625 2.36811 7.03785 2.66659 7.40989 2.66659ZM10.7781 1.99992C10.7781 2.36811 10.4765 2.66659 10.1044 2.66659C9.73239 2.66659 9.43079 2.36811 9.43079 1.99992C9.43079 1.63173 9.73239 1.33325 10.1044 1.33325C10.4765 1.33325 10.7781 1.63173 10.7781 1.99992ZM3.36807 3.99992C3.74011 3.99992 4.04171 3.70144 4.04171 3.33325C4.04171 2.96506 3.74011 2.66659 3.36807 2.66659C2.99604 2.66659 2.69444 2.96506 2.69444 3.33325C2.69444 3.70144 2.99604 3.99992 3.36807 3.99992ZM6.73625 3.33325C6.73625 3.70144 6.43465 3.99992 6.06262 3.99992C5.69058 3.99992 5.38898 3.70144 5.38898 3.33325C5.38898 2.96506 5.69058 2.66659 6.06262 2.66659C6.43465 2.66659 6.73625 2.96506 6.73625 3.33325ZM8.75716 3.99992C9.12919 3.99992 9.43079 3.70144 9.43079 3.33325C9.43079 2.96506 9.12919 2.66659 8.75716 2.66659C8.38512 2.66659 8.08352 2.96506 8.08352 3.33325C8.08352 3.70144 8.38512 3.99992 8.75716 3.99992ZM10.7781 4.66659C10.7781 5.03478 10.4765 5.33325 10.1044 5.33325C9.73239 5.33325 9.43079 5.03478 9.43079 4.66659C9.43079 4.2984 9.73239 3.99992 10.1044 3.99992C10.4765 3.99992 10.7781 4.2984 10.7781 4.66659ZM7.40989 5.33325C7.78192 5.33325 8.08352 5.03478 8.08352 4.66659C8.08352 4.2984 7.78192 3.99992 7.40989 3.99992C7.03785 3.99992 6.73625 4.2984 6.73625 4.66659C6.73625 5.03478 7.03785 5.33325 7.40989 5.33325ZM5.38898 4.66659C5.38898 5.03478 5.08738 5.33325 4.71534 5.33325C4.34331 5.33325 4.04171 5.03478 4.04171 4.66659C4.04171 4.2984 4.34331 3.99992 4.71534 3.99992C5.08738 3.99992 5.38898 4.2984 5.38898 4.66659ZM2.0208 5.33325C2.39284 5.33325 2.69444 5.03478 2.69444 4.66659C2.69444 4.2984 2.39284 3.99992 2.0208 3.99992C1.64876 3.99992 1.34717 4.2984 1.34717 4.66659C1.34717 5.03478 1.64876 5.33325 2.0208 5.33325ZM4.04171 5.99992C4.04171 6.36811 3.74011 6.66659 3.36807 6.66659C2.99604 6.66659 2.69444 6.36811 2.69444 5.99992C2.69444 5.63173 2.99604 5.33325 3.36807 5.33325C3.74011 5.33325 4.04171 5.63173 4.04171 5.99992ZM6.06262 6.66659C6.43465 6.66659 6.73625 6.36811 6.73625 5.99992C6.73625 5.63173 6.43465 5.33325 6.06262 5.33325C5.69058 5.33325 5.38898 5.63173 5.38898 5.99992C5.38898 6.36811 5.69058 6.66659 6.06262 6.66659ZM9.43079 5.99992C9.43079 6.36811 9.12919 6.66659 8.75716 6.66659C8.38512 6.66659 8.08352 6.36811 8.08352 5.99992C8.08352 5.63173 8.38512 5.33325 8.75716 5.33325C9.12919 5.33325 9.43079 5.63173 9.43079 5.99992ZM10.1044 7.99992C10.4765 7.99992 10.7781 7.70144 10.7781 7.33325C10.7781 6.96506 10.4765 6.66659 10.1044 6.66659C9.73239 6.66659 9.43079 6.96506 9.43079 7.33325C9.43079 7.70144 9.73239 7.99992 10.1044 7.99992ZM8.08352 7.33325C8.08352 7.70144 7.78192 7.99992 7.40989 7.99992C7.03785 7.99992 6.73625 7.70144 6.73625 7.33325C6.73625 6.96506 7.03785 6.66659 7.40989 6.66659C7.78192 6.66659 8.08352 6.96506 8.08352 7.33325ZM4.71534 7.99992C5.08738 7.99992 5.38898 7.70144 5.38898 7.33325C5.38898 6.96506 5.08738 6.66659 4.71534 6.66659C4.34331 6.66659 4.04171 6.96506 4.04171 7.33325C4.04171 7.70144 4.34331 7.99992 4.71534 7.99992ZM2.69444 7.33325C2.69444 7.70144 2.39284 7.99992 2.0208 7.99992C1.64876 7.99992 1.34717 7.70144 1.34717 7.33325C1.34717 6.96506 1.64876 6.66659 2.0208 6.66659C2.39284 6.66659 2.69444 6.96506 2.69444 7.33325Z" fill="url(#paint0_linear)"/>
</g>
</g>
<rect x="-3.90234" width="28.2927" height="20" rx="2" fill="white"/>
<mask id="mask2" mask-type="alpha" maskUnits="userSpaceOnUse" x="-4" y="0" width="29" height="20">
<rect x="-3.90234" width="28.2927" height="20" rx="2" fill="white"/>
</mask>
<g mask="url(#mask2)">
<rect x="-3.90234" width="28.2927" height="20" fill="#0A17A7"/>
<path fill-rule="evenodd" clip-rule="evenodd" d="M-5.19831 -1.9165L6.87573 6.14329V-1.33339H13.6121V6.14329L25.6861 -1.9165L27.1929 0.294263L17.6467 6.66661H24.3902V13.3333H17.6467L27.1929 19.7056L25.6861 21.9164L13.6121 13.8566V21.3333H6.87573V13.8566L-5.19831 21.9164L-6.70508 19.7056L2.84107 13.3333H-3.90244V6.66661H2.84107L-6.70508 0.294263L-5.19831 -1.9165Z" fill="white"/>
<path d="M14.9607 6.33219L27.7584 -2" stroke="#DB1F35" stroke-width="0.666667" stroke-linecap="round"/>
<path d="M16.3196 13.6975L27.7921 21.3503" stroke="#DB1F35" stroke-width="0.666667" stroke-linecap="round"/>
<path d="M4.18678 6.31055L-7.78003 -1.6709" stroke="#DB1F35" stroke-width="0.666667" stroke-linecap="round"/>
<path d="M5.48471 13.605L-7.78003 22.3105" stroke="#DB1F35" stroke-width="0.666667" stroke-linecap="round"/>
<path fill-rule="evenodd" clip-rule="evenodd" d="M-3.90234 12H8.22309V20H12.2649V12H24.3903V8H12.2649V0H8.22309V8H-3.90234V12Z" fill="#E6273E"/>
</g>
</g>
<defs>
<filter id="filter0_d" x="1.34717" y="1.33325" width="9.43089" height="7.66667" filterUnits="userSpaceOnUse" color-interpolation-filters="sRGB">
<feFlood flood-opacity="0" result="BackgroundImageFix"/>
<feColorMatrix in="SourceAlpha" type="matrix" values="0 0 0 0 0 0 0 0 0 0 0 0 0 0 0 0 0 0 127 0"/>
<feOffset dy="1"/>
<feColorMatrix type="matrix" values="0 0 0 0 0 0 0 0 0 0 0 0 0 0 0 0 0 0 0.06 0"/>
<feBlend mode="normal" in2="BackgroundImageFix" result="effect1_dropShadow"/>
<feBlend mode="normal" in="SourceGraphic" in2="effect1_dropShadow" result="shape"/>
</filter>
<linearGradient id="paint0_linear" x1="1.34717" y1="1.33325" x2="1.34717" y2="7.99992" gradientUnits="userSpaceOnUse">
<stop stop-color="white"/>
<stop offset="1" stop-color="#F0F0F0"/>
</linearGradient>
</defs>
</svg>
