<svg width="41" height="41" viewBox="0 0 41 41" fill="none" xmlns="http://www.w3.org/2000/svg">
<circle cx="20.5" cy="20.5" r="20.5" fill="#C4C4C4"/>
<circle cx="20.5" cy="20.5" r="20.5" fill="#F3C78E"/>
<path d="M11.0227 19H12.1136C11.7898 17.3125 10.375 16.1534 8.53409 16.1534C6.29688 16.1534 4.71591 17.875 4.71591 20.6364C4.71591 23.3977 6.28409 25.1193 8.60227 25.1193C10.6818 25.1193 12.1648 23.7344 12.1648 21.5739V20.6364H8.84091V21.5739H11.142C11.1122 23.142 10.081 24.1307 8.60227 24.1307C6.98295 24.1307 5.73864 22.9034 5.73864 20.6364C5.73864 18.3693 6.98295 17.142 8.53409 17.142C9.79545 17.142 10.652 17.8537 11.0227 19ZM20.8684 20.6364C20.8684 17.875 19.2491 16.1534 17.0162 16.1534C14.7832 16.1534 13.1639 17.875 13.1639 20.6364C13.1639 23.3977 14.7832 25.1193 17.0162 25.1193C19.2491 25.1193 20.8684 23.3977 20.8684 20.6364ZM19.8457 20.6364C19.8457 22.9034 18.6014 24.1307 17.0162 24.1307C15.4309 24.1307 14.1866 22.9034 14.1866 20.6364C14.1866 18.3693 15.4309 17.142 17.0162 17.142C18.6014 17.142 19.8457 18.3693 19.8457 20.6364ZM22.1754 25H27.289V24.0625H23.2322V16.2727H22.1754V25ZM31.1486 25C33.8077 25 35.3077 23.3466 35.3077 20.6193C35.3077 17.9091 33.8077 16.2727 31.2679 16.2727H28.4554V25H31.1486ZM29.5122 24.0625V17.2102H31.1997C33.2452 17.2102 34.285 18.5057 34.285 20.6193C34.285 22.75 33.2452 24.0625 31.0804 24.0625H29.5122Z" fill="white"/>
</svg>
