<svg width="20" height="20" viewBox="0 0 20 20" fill="none" xmlns="http://www.w3.org/2000/svg">
<path fill-rule="evenodd" clip-rule="evenodd" d="M14.4444 0H5.55556C2.48731 0 0 2.48731 0 5.55556V14.4444C0 17.5127 2.48731 20 5.55556 20H14.4444C17.5127 20 20 17.5127 20 14.4444V5.55556C20 2.48731 17.5127 0 14.4444 0ZM18.0554 14.4448C18.0493 16.4366 16.4361 18.0498 14.4443 18.0559H5.5554C3.56357 18.0498 1.95039 16.4366 1.94429 14.4448V5.55587C1.95039 3.56404 3.56357 1.95086 5.5554 1.94475H14.4443C16.4361 1.95086 18.0493 3.56404 18.0554 5.55587V14.4448ZM15.278 5.83318C15.8917 5.83318 16.3891 5.33572 16.3891 4.72207C16.3891 4.10842 15.8917 3.61096 15.278 3.61096C14.6644 3.61096 14.1669 4.10842 14.1669 4.72207C14.1669 5.33572 14.6644 5.83318 15.278 5.83318ZM10 5.00001C7.23858 5.00001 5 7.23859 5 10C5 12.7614 7.23858 15 10 15C12.7614 15 15 12.7614 15 10C15.003 8.67302 14.4771 7.39954 13.5388 6.46121C12.6005 5.52289 11.327 4.99705 10 5.00001ZM6.94452 10.0003C6.94452 11.6878 8.31254 13.0559 10.0001 13.0559C11.6876 13.0559 13.0556 11.6878 13.0556 10.0003C13.0556 8.31277 11.6876 6.94475 10.0001 6.94475C8.31254 6.94475 6.94452 8.31277 6.94452 10.0003Z" fill="black"/>
</svg>
