<svg width="41" height="41" viewBox="0 0 41 41" fill="none" xmlns="http://www.w3.org/2000/svg">
<rect x="-7" width="56" height="41" rx="2" fill="white"/>
<mask id="mask0" mask-type="alpha" maskUnits="userSpaceOnUse" x="-7" y="0" width="56" height="41">
<rect x="-7" width="56" height="41" rx="2" fill="white"/>
</mask>
<g mask="url(#mask0)">
<rect x="-7" width="56" height="41" fill="#F22A46"/>
<path fill-rule="evenodd" clip-rule="evenodd" d="M20.5003 26.9202C23.9324 26.9202 26.7147 24.138 26.7147 20.7058C26.7147 17.2737 23.9324 14.4915 20.5003 14.4915C17.0682 14.4915 14.2859 17.2737 14.2859 20.7058C14.2859 24.138 17.0682 26.9202 20.5003 26.9202Z" fill="#FFF04D"/>
<path fill-rule="evenodd" clip-rule="evenodd" d="M20.2684 30.2251L17.2681 34.8828L16.5036 29.2994C17.6475 29.8632 18.9222 30.1921 20.2684 30.2251ZM16.1376 29.1086L11.4568 31.9723L13.1353 26.4727C13.9364 27.558 14.9605 28.4606 16.1376 29.1086ZM12.975 26.2487C12.1859 25.1121 11.6358 23.789 11.3996 22.3563L7.43527 26.7277L12.975 26.2487ZM11.3966 22.338C11.3134 21.8273 11.2701 21.3027 11.2701 20.7677C11.2701 15.5431 15.3994 11.3077 20.493 11.3077C25.5867 11.3077 29.7159 15.5431 29.7159 20.7677C29.7159 21.3027 29.6726 21.8273 29.5895 22.3381L34.9863 20.1879L29.5753 18.032L33.551 13.648L27.7764 14.1473L29.5295 8.40344L24.5351 11.459L23.7182 5.49292L20.4931 10.4996L17.2681 5.49292L16.4512 11.459L11.4568 8.40344L13.2098 14.1473L7.43527 13.648L11.411 18.032L6 20.1879L11.3966 22.338ZM29.5865 22.3561C29.3504 23.7888 28.8002 25.1121 28.0111 26.2487L33.551 26.7277L29.5865 22.3561ZM27.8509 26.4725C27.0498 27.5579 26.0257 28.4605 24.8486 29.1086L29.5295 31.9723L27.8509 26.4725ZM24.4827 29.2993L23.7182 34.8828L20.7179 30.2251C22.0641 30.192 23.3388 29.8631 24.4827 29.2993Z" fill="#FFF04D"/>
</g>
</svg>
