<svg width="20" height="20" viewBox="0 0 20 20" fill="none" xmlns="http://www.w3.org/2000/svg">
<mask id="mask0" mask-type="alpha" maskUnits="userSpaceOnUse" x="0" y="0" width="20" height="20">
<circle cx="10" cy="10" r="10" fill="#C4C4C4"/>
</mask>
<g mask="url(#mask0)">
<rect width="20" height="22" rx="2" fill="white"/>
<mask id="mask1" mask-type="alpha" maskUnits="userSpaceOnUse" x="0" y="0" width="20" height="22">
<rect width="20" height="22" rx="2" fill="white"/>
</mask>
<g mask="url(#mask1)">
<rect x="-2" width="24" height="22" fill="#30C6E0"/>
<path fill-rule="evenodd" clip-rule="evenodd" d="M10.1338 13.4424C11.9012 13.4424 13.3339 12.0266 13.3339 10.28C13.3339 8.53351 11.9012 7.11768 10.1338 7.11768C8.36653 7.11768 6.93384 8.53351 6.93384 10.28C6.93384 12.0266 8.36653 13.4424 10.1338 13.4424Z" fill="#FFCD4B"/>
<path fill-rule="evenodd" clip-rule="evenodd" d="M8.82783 15.9323L10.1333 14.0065L11.4387 15.9323L11.7694 13.6375L13.7911 14.8128L13.0815 12.6035L15.419 12.7955L13.8096 11.1092L16 10.28L13.8096 9.45076L15.419 7.76448L13.0815 7.95653L13.7911 5.74719L11.7694 6.9225L11.4387 4.62769L10.1333 6.55345L8.82783 4.62769L8.49715 6.9225L6.47547 5.74719L7.18508 7.95653L4.84759 7.76448L6.45693 9.45076L4.2666 10.28L6.45693 11.1092L4.84759 12.7955L7.18508 12.6035L6.47547 14.8128L8.49715 13.6375L8.82783 15.9323ZM13.8666 10.28C13.8666 12.3176 12.1951 13.9694 10.1332 13.9694C8.07136 13.9694 6.39989 12.3176 6.39989 10.28C6.39989 8.24238 8.07136 6.59057 10.1332 6.59057C12.1951 6.59057 13.8666 8.24238 13.8666 10.28Z" fill="#FFCD4B"/>
<path fill-rule="evenodd" clip-rule="evenodd" d="M0 3.76156C0 3.57746 0.149238 3.42822 0.333333 3.42822H0.733337C0.917432 3.42822 1.06667 3.57746 1.06667 3.76156V4.14901C1.06667 4.33311 0.917432 4.48234 0.733337 4.48234H0.333334C0.149239 4.48234 0 4.33311 0 4.14901V3.76156ZM0 5.86976C0 5.68567 0.149238 5.53643 0.333333 5.53643H0.733337C0.917432 5.53643 1.06667 5.68567 1.06667 5.86976V6.25722C1.06667 6.44131 0.917432 6.59055 0.733337 6.59055H0.333334C0.149239 6.59055 0 6.44131 0 6.25722V5.86976ZM0.333333 7.64467C0.149238 7.64467 0 7.79391 0 7.978V8.36546C0 8.54955 0.149239 8.69879 0.333334 8.69879H0.733337C0.917432 8.69879 1.06667 8.54955 1.06667 8.36546V7.978C1.06667 7.79391 0.917432 7.64467 0.733337 7.64467H0.333333ZM0 10.0862C0 9.90215 0.149238 9.75291 0.333333 9.75291H0.733337C0.917432 9.75291 1.06667 9.90215 1.06667 10.0862V10.4737C1.06667 10.6578 0.917432 10.807 0.733337 10.807H0.333334C0.149239 10.807 0 10.6578 0 10.4737V10.0862ZM0.333333 11.8613C0.149238 11.8613 0 12.0105 0 12.1946V12.5821C0 12.7661 0.149239 12.9154 0.333334 12.9154H0.733337C0.917432 12.9154 1.06667 12.7661 1.06667 12.5821V12.1946C1.06667 12.0105 0.917432 11.8613 0.733337 11.8613H0.333333ZM0 14.3028C0 14.1187 0.149238 13.9695 0.333333 13.9695H0.733337C0.917432 13.9695 1.06667 14.1187 1.06667 14.3028V14.6903C1.06667 14.8744 0.917432 15.0236 0.733337 15.0236H0.333334C0.149239 15.0236 0 14.8744 0 14.6903V14.3028ZM0.333333 16.0777C0.149238 16.0777 0 16.227 0 16.4111V16.7985C0 16.9826 0.149239 17.1319 0.333334 17.1319H0.733337C0.917432 17.1319 1.06667 16.9826 1.06667 16.7985V16.4111C1.06667 16.227 0.917432 16.0777 0.733337 16.0777H0.333333ZM1.06618 15.357C1.06618 15.1729 1.21542 15.0236 1.39952 15.0236H1.79952C1.98362 15.0236 2.13285 15.1729 2.13285 15.357V15.7444C2.13285 15.9285 1.98362 16.0777 1.79952 16.0777H1.39952C1.21542 16.0777 1.06618 15.9285 1.06618 15.7444V15.357ZM1.39952 12.9154C1.21542 12.9154 1.06618 13.0646 1.06618 13.2487V13.6362C1.06618 13.8203 1.21542 13.9695 1.39952 13.9695H1.79952C1.98362 13.9695 2.13285 13.8203 2.13285 13.6362V13.2487C2.13285 13.0646 1.98362 12.9154 1.79952 12.9154H1.39952ZM1.06618 11.1405C1.06618 10.9564 1.21542 10.8071 1.39952 10.8071H1.79952C1.98362 10.8071 2.13285 10.9564 2.13285 11.1405V11.5279C2.13285 11.712 1.98362 11.8613 1.79952 11.8613H1.39952C1.21542 11.8613 1.06618 11.712 1.06618 11.5279V11.1405ZM1.39952 8.69879C1.21542 8.69879 1.06618 8.84803 1.06618 9.03212V9.41958C1.06618 9.60367 1.21542 9.75291 1.39952 9.75291H1.79952C1.98362 9.75291 2.13285 9.60367 2.13285 9.41958V9.03212C2.13285 8.84803 1.98362 8.69879 1.79952 8.69879H1.39952ZM1.06618 6.92388C1.06618 6.73979 1.21542 6.59055 1.39952 6.59055H1.79952C1.98362 6.59055 2.13285 6.73979 2.13285 6.92388V7.31134C2.13285 7.49543 1.98362 7.64467 1.79952 7.64467H1.39952C1.21542 7.64467 1.06618 7.49543 1.06618 7.31134V6.92388ZM1.39952 4.48231C1.21542 4.48231 1.06618 4.63155 1.06618 4.81564V5.2031C1.06618 5.38719 1.21542 5.53643 1.39952 5.53643H1.79952C1.98362 5.53643 2.13285 5.38719 2.13285 5.2031V4.81564C2.13285 4.63155 1.98362 4.48231 1.79952 4.48231H1.39952Z" fill="#FFCD4B"/>
</g>
</g>
</svg>
