<svg width="231" height="48" viewBox="0 0 231 48" fill="none" xmlns="http://www.w3.org/2000/svg">
<g filter="url(#filter0_d)">
<path d="M171.34 25.9877C171.152 23.7099 170.811 20.07 170.904 17.2699C171.016 13.9639 170.312 13.6068 169.608 13.6002C168.904 13.5936 168.286 14.2283 168.458 17.3327C168.537 18.7245 168.289 23.1909 168.173 26.1398C168.097 28.0176 168.067 28.6259 169.595 28.7185C171.532 28.8309 171.463 27.4854 171.34 25.9877ZM163.337 3.70869C163.651 2.60118 164.11 1.7251 165.168 1.7251H174.094C175.38 1.7251 175.883 2.3863 176.23 3.39793C177.308 6.5287 177.265 9.83469 177.48 13.1275C177.453 15.4174 177.428 17.7073 177.404 19.9973C177.344 25.6439 177.734 29.383 178.425 34.2891C178.557 35.2544 178.987 37.1124 179.45 37.9257C180.442 39.6316 181.225 42.4549 179.404 42.4945C177.261 42.5375 175.106 42.4945 172.98 42.4945C171.4 42.4945 170.97 41.235 171.962 40.1804C172.666 39.4299 172.593 38.7257 172.494 37.8199C172.197 35.0759 167.555 34.7651 167.046 37.962C166.997 38.4602 167.032 38.9629 167.148 39.4497C167.363 40.3523 167.929 40.4581 168.14 41.2019C168.352 41.9457 167.862 42.4945 166.246 42.4945C164.401 42.4945 162.553 42.4615 160.708 42.4945C158.394 42.5342 159.812 39.1886 160.55 37.9554C161.155 36.9438 161.33 35.1817 161.525 33.8064C162.444 27.3101 161.991 26.0803 162.12 21.2602C162.189 18.7609 162.179 16.2615 162.246 13.7655C162.434 10.3868 162.394 6.95517 163.337 3.70869Z" fill="white"/>
<path d="M136.905 7.30523L136.409 34.2523C136.39 35.4326 136.347 36.4475 136.277 37.4228C136.183 38.3864 135.975 39.3353 135.656 40.2494C135.216 41.6743 135.656 42.5305 137.276 42.5206C139.005 42.5206 140.429 42.5041 142.178 42.4644C143.927 42.4247 144.347 42.1702 143.884 40.4808C143.722 39.8957 143.2 39.3667 143.084 38.7419C142.582 36.064 142.654 33.3333 142.635 30.5695C142.635 29.5049 142.635 21.359 142.846 20.7937C143.256 19.6101 143.96 19.4184 144.542 20.7606C144.82 21.4053 145.709 28.0338 146.139 30.6786C146.8 34.7119 147.157 36.5302 147.703 38.8939C148.199 41.0528 147.319 42.6066 149.623 42.4843C151.296 42.3983 152.949 42.4148 154.622 42.4148C156.067 42.4148 155.73 41.2148 155.468 40.1601C155.27 39.3535 154.652 38.9799 154.437 38.1071C154.248 37.3501 153.617 35.1615 153.181 33.5482C151.941 28.9925 150.086 21.6962 149.769 17.5902C149.702 16.8364 149.724 16.0774 149.835 15.3289C150.133 13.6263 151.015 14.0065 151.647 12.8924C152.649 11.3508 153.33 9.62239 153.647 7.81105C153.829 6.85231 154.179 3.9761 154.12 3.12977C154.08 2.57436 153.895 2.13797 153.405 1.90655H147.736C146.522 1.90655 145.987 2.04541 146.083 3.08018C146.186 3.87029 146.376 4.64647 146.651 5.39437C147.005 6.20765 147.587 6.05557 147.703 7.46723C147.865 9.4938 146.843 10.6773 145.121 10.836C143.494 10.684 142.876 9.72191 142.605 8.10198C142.449 7.16969 142.644 6.80272 143.266 6.11838C143.887 5.43404 144.238 3.80419 144.218 2.8719C144.218 2.21071 143.861 1.9859 142.783 1.96606L140.195 1.88672H136.968C136.261 2.01235 136.224 2.51486 136.598 3.79427C137.011 5.20593 136.928 5.84068 136.892 7.30523" fill="white"/>
<path d="M109.476 19.0582C109.565 21.2335 108.153 21.8451 105.978 21.7029C103.002 21.4914 100.655 20.9657 100.52 24.5263C100.503 25.5743 100.222 30.9134 100.615 33.6541C100.893 35.5914 101.25 35.1649 103.032 35.2873C104.146 35.3633 105.26 35.3567 105.905 34.712C109.165 31.7895 109.347 33.7202 109.125 36.2228C108.761 40.3917 110.219 42.7158 105.819 42.5538C102.364 42.4282 99.0451 42.5538 95.5507 42.5042C93.6332 42.4778 93.4316 41.1818 93.7688 39.7834C94.0727 38.6044 94.309 37.409 94.4762 36.203C95.23 30.6225 94.992 24.9031 95.1374 19.2697C95.2565 15.1042 95.468 10.8692 95.1771 6.92187C95.1413 6.12618 95.0081 5.33788 94.7804 4.57462C94.3506 3.25223 94.301 2.04223 97.0946 2.10174C100.215 2.17117 103.343 2.06538 106.467 2.04885C108.556 2.04885 109.062 1.77445 108.99 4.06219C108.91 6.61772 108.556 8.69058 108.659 11.4015C108.702 12.4892 108.966 14.3372 108.461 14.4463C107.512 14.648 106.913 14.7438 106.9 13.4545C106.9 12.8528 106.613 11.8775 104.999 11.6825C103.287 11.4742 101.181 11.7784 101.277 14.5422C101.336 16.1753 101.733 16.5555 103.31 16.5687C107.409 16.5985 109.386 17.3126 109.459 19.0582" fill="white"/>
<path d="M71.0468 42.6565C69.2517 42.6565 67.4565 42.6036 65.6614 42.5871C63.8662 42.5705 64.1307 42.8086 65.0399 41.2878C69.6385 33.5915 71.232 27.3266 72.2039 18.179C72.5892 14.691 72.6489 11.1748 72.3825 7.67583C72.3352 6.71293 72.125 5.76501 71.7609 4.87236C70.8485 3.0177 70.0716 1.94656 73.4139 2.09202C77.7117 2.14161 81.9434 2.03251 86.2246 2.09202C88.7934 2.12177 87.3387 5.8377 87.1007 8.0428C86.3436 15.1143 86.618 22.2387 86.4957 29.3598C86.5651 33.9254 86.456 37.0528 87.1404 41.182C87.3255 42.2829 87.7057 42.5044 86.7437 42.5044H80.6077C78.6969 42.5044 79.3217 42.63 79.5531 40.5737C80.1019 35.6478 80.3069 24.8537 80.1383 17.6533C80.0457 13.7721 80.5482 10.995 79.7085 10.9322C79.4044 10.9091 78.9151 11.924 78.6572 13.4084C78.3266 15.3689 78.2175 18.1955 77.7977 21.0353C77.0538 26.0307 76.0356 30.831 75.7645 32.1137C74.9248 36.0809 74.3892 38.6959 73.3478 41.0729C72.5775 42.835 72.8155 42.6664 71.0336 42.6499" fill="white"/>
<path d="M30.5286 2.82926C31.2956 4.70045 31.0046 8.2081 30.9352 11.5108C30.8228 16.9624 30.3996 22.6619 33.1998 22.9396C36.4231 23.2702 34.6743 8.86599 33.9139 5.86416C33.7884 5.27989 33.5825 4.71582 33.3023 4.18802C32.8494 3.30863 32.4989 1.87052 33.9899 1.83085H40.0234C40.1997 1.93718 40.3412 2.09267 40.4305 2.27824C40.5197 2.46381 40.5529 2.6714 40.5259 2.87554C40.0234 15.1209 41.0152 30.4277 35.0313 41.3771C34.4825 42.3689 34.1387 42.4912 33.0709 42.4912H27.0308C25.3778 42.4119 23.4934 41.6085 27.0077 39.648C28.8954 38.5934 31.4741 35.4296 31.9005 32.0873C29.917 31.6707 27.9003 30.3582 26.6903 26.7977C24.1149 19.1939 25.9167 9.38504 23.619 4.92856C23.2322 4.17149 21.8404 1.83085 23.4174 1.83085H29.0376C29.3613 1.79806 29.6863 1.87917 29.9566 2.0602C30.2269 2.24123 30.4257 2.51085 30.5186 2.82265" fill="white"/>
<path d="M54.9371 32.1401C54.8478 29.5317 53.5486 24.6455 52.1733 24.6455C51.4261 24.6455 51.1418 25.1678 50.9468 26.1232C50.7517 27.0787 51.0195 30.0904 50.9203 33.522C50.8608 35.6478 52.5733 36.1338 53.7668 35.3139C54.547 34.775 54.99 33.6609 54.9371 32.1401ZM44.6522 39.8794C45.0357 38.7554 45.4919 35.6114 45.472 33.0625C45.3894 22.89 45.3464 12.767 45.5316 2.59782C45.5316 2.36309 46.0241 2.13167 46.8804 2.12175C49.9417 2.08869 53.4031 1.96307 56.3983 1.96637C58.7125 1.96637 59.0431 2.56806 59.0597 3.65904C59.1159 5.92695 59.1291 8.28742 59.0597 10.5421C58.9737 13.1869 58.5472 13.2993 57.5918 11.9273C55.2578 8.58496 49.9219 11.5273 52.084 15.7424C52.9568 17.445 54.8511 18.6881 56.157 20.1526C58.6067 22.8933 60.5473 25.8323 60.7523 29.9483C60.8978 32.8311 61.6978 39.4298 57.2017 41.6977C56.0546 42.2444 54.7959 42.5161 53.5254 42.4912H47.5416C44.8406 42.4945 44.0802 41.5622 44.6522 39.8794Z" fill="white"/>
<path fill-rule="evenodd" clip-rule="evenodd" d="M8.28599 35.2676C7.86944 29.9185 8.42154 31.4525 11.9457 31.0326C18.2469 30.2822 21.8075 7.82461 12.3557 2.65405C11.6482 2.26725 11.2911 2.08872 10.5043 2.08211L2.96666 2.05566V7.08738C3.14849 12.8696 2.48729 31.1484 2.20297 39.0827C2.15669 40.3754 1.54178 42.5143 2.70879 42.5143H10.3126C11.344 42.5143 11.9986 42.1275 10.3126 40.0183C9.37036 38.8348 8.41492 37.2082 8.26616 35.2709L8.28599 35.2676ZM10.1704 24.2719C8.3455 24.2719 8.59345 22.2453 8.59345 20.9229C8.59345 19.1311 8.56039 17.4021 8.55708 15.6334C8.55708 14.4333 8.66949 13.0547 10.2861 13.0547C12.8416 13.0547 12.683 18.5096 12.478 21.3593C12.392 22.533 11.4928 24.2719 10.1704 24.2719Z" fill="white"/>
<path fill-rule="evenodd" clip-rule="evenodd" d="M120.197 28.0539C120.197 26.4836 119.824 25.3099 121.222 25.0785C122.336 25.3033 122.875 26.0009 123.298 26.8869C123.867 28.0003 124.252 29.1981 124.439 30.4342C124.693 32.2624 124.594 34.1039 123.794 35.0395C123.451 35.4504 122.973 35.7249 122.445 35.8128C121.917 35.9008 121.375 35.7965 120.918 35.5188C120.2 35.0527 120.293 33.8658 120.283 33.1154C120.253 31.3797 120.214 30.0639 120.197 28.0374V28.0539ZM121.126 14.701C120.901 13.76 120.901 12.7791 121.126 11.838C121.569 10.0792 123.186 9.89411 123.9 11.1239C125.222 13.3852 123.744 16.1193 122.356 15.8449C121.913 15.7722 121.44 15.7655 121.126 14.7175V14.701ZM114.703 4.15492C114.845 6.13851 115.056 7.55347 115.033 9.52054C114.941 17.6896 115.003 25.8984 114.904 34.0642C114.952 35.6283 114.754 37.1902 114.316 38.6926C113.817 40.739 113.056 42.187 116.144 42.5474H123.262C125.206 42.5474 126.085 42.6102 127.728 41.2448C129.441 39.8166 130.042 37.7239 130.297 35.3767C130.516 33.5673 130.541 31.7398 130.373 29.9251C130.128 27.1348 129.712 25.0785 127.222 22.5891C130.257 18.4864 130.836 13.9935 130.198 8.89571C129.728 5.12357 128.214 1.90685 123.53 1.95313L116.184 2.00272C114.184 2.01594 114.577 2.40605 114.703 4.15492Z" fill="white"/>
<path d="M226.008 7.78147C225.455 8.33289 224.728 8.67556 223.951 8.75111C223.174 8.82666 222.395 8.63041 221.746 8.1958C221.097 7.76119 220.619 7.11511 220.393 6.36761C220.168 5.62011 220.208 4.81745 220.508 4.09636C220.807 3.37528 221.348 2.78037 222.037 2.41301C222.726 2.04564 223.521 1.92853 224.287 2.08164C225.052 2.23474 225.741 2.64858 226.236 3.25266C226.731 3.85674 227.001 4.61369 227 5.39455C227 5.83816 226.913 6.27746 226.743 6.68712C226.573 7.09679 226.323 7.46871 226.008 7.78147ZM223.621 8.44267C224.329 8.44278 225.015 8.19757 225.562 7.74882C226.108 7.30007 226.483 6.67555 226.621 5.98166C226.759 5.28778 226.652 4.56747 226.319 3.94346C225.986 3.31945 225.446 2.83036 224.793 2.55953C224.139 2.28869 223.412 2.25286 222.735 2.45815C222.057 2.66344 221.473 3.09714 221.079 3.68535C220.686 4.27357 220.509 4.97991 220.579 5.68401C220.648 6.38811 220.959 7.04641 221.459 7.54674C221.742 7.83355 222.078 8.06133 222.449 8.21685C222.821 8.37236 223.219 8.45249 223.621 8.45258V8.44267Z" fill="white"/>
<path d="M222.65 5.16956H223.741C223.926 5.17707 224.11 5.15246 224.287 5.09683C224.41 5.05673 224.515 4.97487 224.584 4.86541C224.65 4.76763 224.686 4.65267 224.687 4.53481C224.689 4.45039 224.672 4.36658 224.637 4.28942C224.603 4.21225 224.552 4.14364 224.488 4.0885C224.308 3.95634 224.086 3.89408 223.863 3.91328H222.65V5.16956ZM222.144 7.31184V3.47689H223.837C224.101 3.46499 224.365 3.49968 224.617 3.57938C224.796 3.64955 224.946 3.77758 225.044 3.94304C225.15 4.11691 225.205 4.31758 225.202 4.52159C225.206 4.64805 225.185 4.77403 225.14 4.89213C225.094 5.01022 225.026 5.11804 224.938 5.20923C224.715 5.41915 224.427 5.54533 224.121 5.56628C224.232 5.61604 224.335 5.68054 224.429 5.75803C224.589 5.91034 224.732 6.08125 224.852 6.26715L225.513 7.31184H224.872L224.366 6.5151C224.217 6.28368 224.095 6.10846 223.999 5.98614C223.928 5.8873 223.841 5.80122 223.741 5.73158C223.67 5.68362 223.592 5.64786 223.51 5.62579C223.415 5.61297 223.32 5.60745 223.225 5.60926H222.637V7.31184H222.144Z" fill="white"/>
<path fill-rule="evenodd" clip-rule="evenodd" d="M226.954 22.2024C226.954 12.1291 216.993 3.95996 204.708 3.95996C192.43 3.95996 182.465 12.1258 182.465 22.2024C182.465 32.2791 192.423 40.4482 204.708 40.4482C216.993 40.4482 226.954 32.2757 226.954 22.2024ZM216.008 16.3973L214.025 25.254H211.935C213.172 22.4361 214.141 19.5085 214.832 16.5097L214.858 16.3973H216.008ZM214.755 30.9535H217.437L218.683 25.254H217.89L220.518 13.4516H211.922L211.82 13.9046C211.336 16.1204 210.715 18.3043 209.962 20.4438C209.394 22.1083 208.688 23.7228 207.853 25.2705H207.059L205.793 30.9535H208.474L209.046 28.3881H215.327L214.755 30.9535ZM209.119 16.427L209.78 13.4516L201.27 13.4615L200.609 16.4369H202.923L200.279 28.3881H204.166L206.834 16.427H209.119ZM193.627 28.3881H197.518L200.86 13.4516H191.934L189.485 24.444C189.332 25.1295 189.154 25.5295 188.949 25.6441C188.628 25.7831 188.279 25.8432 187.931 25.8193L187.359 28.3881H187.967C188.915 28.4116 189.863 28.3496 190.8 28.2029C191.395 28.0871 191.929 27.7638 192.308 27.2905C192.705 26.8056 193.026 26.0056 193.273 24.8904L195.158 16.4369H196.292L193.627 28.3881Z" fill="white"/>
</g>
<defs>
<filter id="filter0_d" x="0" y="0.725098" width="231" height="46.9364" filterUnits="userSpaceOnUse" color-interpolation-filters="sRGB">
<feFlood flood-opacity="0" result="BackgroundImageFix"/>
<feColorMatrix in="SourceAlpha" type="matrix" values="0 0 0 0 0 0 0 0 0 0 0 0 0 0 0 0 0 0 127 0"/>
<feOffset dx="1" dy="2"/>
<feGaussianBlur stdDeviation="1.5"/>
<feColorMatrix type="matrix" values="0 0 0 0 0 0 0 0 0 0 0 0 0 0 0 0 0 0 0.1 0"/>
<feBlend mode="normal" in2="BackgroundImageFix" result="effect1_dropShadow"/>
<feBlend mode="normal" in="SourceGraphic" in2="effect1_dropShadow" result="shape"/>
</filter>
</defs>
</svg>
