<svg width="30" height="20" viewBox="0 0 30 20" fill="none" xmlns="http://www.w3.org/2000/svg">
<path d="M2.33773 19.5H27.6711C28.5419 19.5 29.2544 18.7875 29.2544 17.9167C29.2544 17.0458 28.5419 16.3333 27.6711 16.3333H2.33773C1.46689 16.3333 0.754395 17.0458 0.754395 17.9167C0.754395 18.7875 1.46689 19.5 2.33773 19.5ZM2.33773 11.5833H27.6711C28.5419 11.5833 29.2544 10.8708 29.2544 10C29.2544 9.12917 28.5419 8.41667 27.6711 8.41667H2.33773C1.46689 8.41667 0.754395 9.12917 0.754395 10C0.754395 10.8708 1.46689 11.5833 2.33773 11.5833ZM0.754395 2.08333C0.754395 2.95417 1.46689 3.66667 2.33773 3.66667H27.6711C28.5419 3.66667 29.2544 2.95417 29.2544 2.08333C29.2544 1.2125 28.5419 0.5 27.6711 0.5H2.33773C1.46689 0.5 0.754395 1.2125 0.754395 2.08333Z" fill="white"/>
</svg>
