<svg width="41" height="41" viewBox="0 0 41 41" fill="none" xmlns="http://www.w3.org/2000/svg">
<rect x="-8" width="58" height="42" rx="2" fill="white"/>
<mask id="mask0" mask-type="alpha" maskUnits="userSpaceOnUse" x="-8" y="0" width="58" height="42">
<rect x="-8" width="58" height="42" rx="2" fill="white"/>
</mask>
<g mask="url(#mask0)">
<rect x="-8" width="58" height="42" fill="#E92434"/>
<path fill-rule="evenodd" clip-rule="evenodd" d="M29.4859 21.8224L27.554 24.1969L27.6856 21.1218L24.8611 19.993L27.7866 19.1696L27.9727 16.0974L29.6492 18.6636L32.5888 17.8938L30.6994 20.3031L32.33 22.8996L29.4859 21.8224Z" fill="white"/>
<path fill-rule="evenodd" clip-rule="evenodd" d="M26.9338 26.4847C25.2022 28.7385 22.4998 30.1882 19.4635 30.1882C14.237 30.1882 10 25.8927 10 20.5941C10 15.2954 14.237 11 19.4635 11C22.4998 11 25.202 12.4496 26.9337 14.7033C25.5974 13.7186 23.9172 13.132 22.0922 13.132C17.7367 13.132 14.2059 16.4729 14.2059 20.594C14.2059 24.7152 17.7367 28.0561 22.0922 28.0561C23.9172 28.0561 25.5975 27.4695 26.9338 26.4847Z" fill="white"/>
</g>
</svg>
