<svg width="41" height="41" viewBox="0 0 41 41" fill="none" xmlns="http://www.w3.org/2000/svg">
<rect width="58" height="41" rx="2" fill="white"/>
<mask id="mask0" mask-type="alpha" maskUnits="userSpaceOnUse" x="0" y="0" width="58" height="41">
<rect width="58" height="41" rx="2" fill="white"/>
</mask>
<g mask="url(#mask0)">
<path fill-rule="evenodd" clip-rule="evenodd" d="M58 0H0V2.73333H58V0ZM58 5.46669H0V8.20002H58V5.46669ZM0 10.9333H58V13.6666H0V10.9333ZM58 16.4H0V19.1333H58V16.4ZM0 21.8667H58V24.6H0V21.8667ZM58 27.3333H0V30.0666H58V27.3333ZM0 32.8H58V35.5333H0V32.8ZM58 38.2667H0V41H58V38.2667Z" fill="#D02F44"/>
<rect width="24.8571" height="19.1333" fill="#46467F"/>
<g filter="url(#filter0_d)">
<path fill-rule="evenodd" clip-rule="evenodd" d="M5.52387 4.10006C5.52387 4.85485 4.90559 5.46673 4.14292 5.46673C3.38024 5.46673 2.76196 4.85485 2.76196 4.10006C2.76196 3.34528 3.38024 2.7334 4.14292 2.7334C4.90559 2.7334 5.52387 3.34528 5.52387 4.10006ZM11.0477 4.10006C11.0477 4.85485 10.4294 5.46673 9.66673 5.46673C8.90405 5.46673 8.28578 4.85485 8.28578 4.10006C8.28578 3.34528 8.90405 2.7334 9.66673 2.7334C10.4294 2.7334 11.0477 3.34528 11.0477 4.10006ZM15.1905 5.46673C15.9532 5.46673 16.5715 4.85485 16.5715 4.10006C16.5715 3.34528 15.9532 2.7334 15.1905 2.7334C14.4279 2.7334 13.8096 3.34528 13.8096 4.10006C13.8096 4.85485 14.4279 5.46673 15.1905 5.46673ZM22.0953 4.10006C22.0953 4.85485 21.477 5.46673 20.7143 5.46673C19.9517 5.46673 19.3334 4.85485 19.3334 4.10006C19.3334 3.34528 19.9517 2.7334 20.7143 2.7334C21.477 2.7334 22.0953 3.34528 22.0953 4.10006ZM6.90481 8.20004C7.66749 8.20004 8.28577 7.58817 8.28577 6.83338C8.28577 6.07859 7.66749 5.46671 6.90481 5.46671C6.14214 5.46671 5.52386 6.07859 5.52386 6.83338C5.52386 7.58817 6.14214 8.20004 6.90481 8.20004ZM13.8096 6.83338C13.8096 7.58817 13.1913 8.20004 12.4286 8.20004C11.666 8.20004 11.0477 7.58817 11.0477 6.83338C11.0477 6.07859 11.666 5.46671 12.4286 5.46671C13.1913 5.46671 13.8096 6.07859 13.8096 6.83338ZM17.9524 8.20004C18.7151 8.20004 19.3334 7.58817 19.3334 6.83338C19.3334 6.07859 18.7151 5.46671 17.9524 5.46671C17.1898 5.46671 16.5715 6.07859 16.5715 6.83338C16.5715 7.58817 17.1898 8.20004 17.9524 8.20004ZM22.0953 9.56675C22.0953 10.3215 21.477 10.9334 20.7143 10.9334C19.9517 10.9334 19.3334 10.3215 19.3334 9.56675C19.3334 8.81196 19.9517 8.20009 20.7143 8.20009C21.477 8.20009 22.0953 8.81196 22.0953 9.56675ZM15.1905 10.9334C15.9532 10.9334 16.5715 10.3215 16.5715 9.56675C16.5715 8.81196 15.9532 8.20009 15.1905 8.20009C14.4279 8.20009 13.8096 8.81196 13.8096 9.56675C13.8096 10.3215 14.4279 10.9334 15.1905 10.9334ZM11.0477 9.56675C11.0477 10.3215 10.4294 10.9334 9.66673 10.9334C8.90405 10.9334 8.28578 10.3215 8.28578 9.56675C8.28578 8.81196 8.90405 8.20009 9.66673 8.20009C10.4294 8.20009 11.0477 8.81196 11.0477 9.56675ZM4.14292 10.9334C4.90559 10.9334 5.52387 10.3215 5.52387 9.56675C5.52387 8.81196 4.90559 8.20009 4.14292 8.20009C3.38024 8.20009 2.76196 8.81196 2.76196 9.56675C2.76196 10.3215 3.38024 10.9334 4.14292 10.9334ZM8.28577 12.3001C8.28577 13.0549 7.66749 13.6667 6.90481 13.6667C6.14214 13.6667 5.52386 13.0549 5.52386 12.3001C5.52386 11.5453 6.14214 10.9334 6.90481 10.9334C7.66749 10.9334 8.28577 11.5453 8.28577 12.3001ZM12.4286 13.6667C13.1913 13.6667 13.8096 13.0549 13.8096 12.3001C13.8096 11.5453 13.1913 10.9334 12.4286 10.9334C11.666 10.9334 11.0477 11.5453 11.0477 12.3001C11.0477 13.0549 11.666 13.6667 12.4286 13.6667ZM19.3334 12.3001C19.3334 13.0549 18.7151 13.6667 17.9524 13.6667C17.1898 13.6667 16.5715 13.0549 16.5715 12.3001C16.5715 11.5453 17.1898 10.9334 17.9524 10.9334C18.7151 10.9334 19.3334 11.5453 19.3334 12.3001ZM20.7143 16.4C21.477 16.4 22.0953 15.7882 22.0953 15.0334C22.0953 14.2786 21.477 13.6667 20.7143 13.6667C19.9517 13.6667 19.3334 14.2786 19.3334 15.0334C19.3334 15.7882 19.9517 16.4 20.7143 16.4ZM16.5715 15.0334C16.5715 15.7882 15.9532 16.4 15.1905 16.4C14.4279 16.4 13.8096 15.7882 13.8096 15.0334C13.8096 14.2786 14.4279 13.6667 15.1905 13.6667C15.9532 13.6667 16.5715 14.2786 16.5715 15.0334ZM9.66673 16.4C10.4294 16.4 11.0477 15.7882 11.0477 15.0334C11.0477 14.2786 10.4294 13.6667 9.66673 13.6667C8.90405 13.6667 8.28578 14.2786 8.28578 15.0334C8.28578 15.7882 8.90405 16.4 9.66673 16.4ZM5.52387 15.0334C5.52387 15.7882 4.90559 16.4 4.14292 16.4C3.38024 16.4 2.76196 15.7882 2.76196 15.0334C2.76196 14.2786 3.38024 13.6667 4.14292 13.6667C4.90559 13.6667 5.52387 14.2786 5.52387 15.0334Z" fill="url(#paint0_linear)"/>
</g>
</g>
<defs>
<filter id="filter0_d" x="2.76196" y="2.7334" width="19.3333" height="14.6666" filterUnits="userSpaceOnUse" color-interpolation-filters="sRGB">
<feFlood flood-opacity="0" result="BackgroundImageFix"/>
<feColorMatrix in="SourceAlpha" type="matrix" values="0 0 0 0 0 0 0 0 0 0 0 0 0 0 0 0 0 0 127 0"/>
<feOffset dy="1"/>
<feColorMatrix type="matrix" values="0 0 0 0 0 0 0 0 0 0 0 0 0 0 0 0 0 0 0.06 0"/>
<feBlend mode="normal" in2="BackgroundImageFix" result="effect1_dropShadow"/>
<feBlend mode="normal" in="SourceGraphic" in2="effect1_dropShadow" result="shape"/>
</filter>
<linearGradient id="paint0_linear" x1="2.76196" y1="2.7334" x2="2.76196" y2="16.4001" gradientUnits="userSpaceOnUse">
<stop stop-color="white"/>
<stop offset="1" stop-color="#F0F0F0"/>
</linearGradient>
</defs>
</svg>
