<svg width="93" height="20" viewBox="0 0 93 20" fill="none" xmlns="http://www.w3.org/2000/svg">
<path fill-rule="evenodd" clip-rule="evenodd" d="M2.97315 16.9219C3.17096 16.9549 3.49702 16.9834 3.95133 17.0075C4.40565 17.0316 4.83102 17.0436 5.22743 17.0436C5.98334 17.069 6.7369 16.9462 7.44554 16.6822C7.72348 16.5754 7.95924 16.3815 8.11737 16.1294C8.2755 15.8774 8.34745 15.5809 8.3224 15.2845C8.34658 14.9995 8.28218 14.714 8.138 14.4669C7.99381 14.2198 7.77685 14.0231 7.5167 13.9037C6.85589 13.6284 6.14312 13.4997 5.42765 13.5265H2.97315V16.9219ZM5.22864 11.4746C5.85942 11.495 6.48775 11.3868 7.07525 11.1565C7.31563 11.049 7.51573 10.8682 7.64684 10.6401C7.77794 10.4119 7.8333 10.1481 7.80497 9.88656C7.81482 9.61402 7.72954 9.34654 7.56374 9.12989C7.39435 8.92581 7.1773 8.76649 6.93172 8.666C6.6389 8.54521 6.33016 8.46729 6.01505 8.43466C5.6547 8.39321 5.29225 8.37269 4.92952 8.37321C4.632 8.37321 4.28905 8.38125 3.90067 8.39731C3.5123 8.41338 3.20272 8.43788 2.97194 8.47081V11.4746H5.22864ZM5.15386 19.3642C4.6714 19.3642 4.18412 19.3478 3.69201 19.3148C3.1999 19.2819 2.72468 19.2417 2.26635 19.1944C1.81203 19.1454 1.38667 19.0923 0.990245 19.0353C0.593826 18.9783 0.263744 18.9168 0 18.851V6.51647C0.263744 6.45141 0.594228 6.38996 0.991452 6.33213C1.38868 6.27429 1.81404 6.22569 2.26755 6.18633C2.72187 6.14697 3.19669 6.11444 3.69201 6.08874C4.18734 6.06303 4.67462 6.05058 5.15386 6.05139C6.5784 5.97148 7.99636 6.2974 9.24269 6.9912C9.69933 7.25922 10.0758 7.64454 10.3328 8.10711C10.5899 8.56967 10.7183 9.09259 10.7045 9.62148C10.7116 10.1611 10.5637 10.6915 10.2784 11.1498C9.99298 11.6081 9.58208 11.975 9.09434 12.2072C9.68704 12.4341 10.2148 12.8032 10.631 13.2819C11.0937 13.8714 11.323 14.6104 11.275 15.358C11.2989 15.9433 11.1698 16.5248 10.9003 17.0452C10.6309 17.5655 10.2304 18.0068 9.73842 18.3256C8.3442 19.1096 6.75144 19.4705 5.15507 19.3642H5.15386Z" fill="white"/>
<path fill-rule="evenodd" clip-rule="evenodd" d="M21.3872 11.4239C21.3891 11.0341 21.331 10.6464 21.2147 10.2744C21.1095 9.92997 20.9378 9.60946 20.7093 9.33096C20.4873 9.06477 20.2099 8.85013 19.8964 8.702C19.5364 8.541 19.1448 8.46277 18.7506 8.47307C18.3344 8.46385 17.9217 8.55043 17.5444 8.7261C17.211 8.88656 16.9135 9.11281 16.67 9.3912C16.4292 9.66941 16.2412 9.9891 16.1151 10.3346C15.9846 10.6849 15.8935 11.0486 15.8437 11.419L21.3872 11.4239ZM12.7379 12.7312C12.7178 11.7323 12.8893 10.7389 13.2433 9.80448C13.5436 9.02465 14.0004 8.31445 14.5857 7.7176C15.1315 7.16918 15.7859 6.74073 16.5071 6.4597C17.2134 6.17873 17.9663 6.03321 18.7264 6.03075C19.4943 5.98738 20.2626 6.10966 20.9789 6.3893C21.6953 6.66893 22.343 7.09937 22.878 7.65134C23.9677 9.01845 24.5002 10.7463 24.3688 12.489C24.3688 12.6496 24.3648 12.8308 24.3567 13.0324C24.3487 13.234 24.3362 13.4155 24.3193 13.577H15.8184C15.8324 14.0238 15.9368 14.4631 16.1252 14.8685C16.3136 15.274 16.5822 15.6372 16.9148 15.9362C17.7245 16.5435 18.7258 16.8398 19.736 16.7712C20.4023 16.7768 21.0674 16.7118 21.7201 16.5772C22.2038 16.4828 22.6781 16.3453 23.1373 16.1663L23.5317 18.5616C23.3126 18.6631 23.0859 18.7477 22.8539 18.8147C22.5299 18.9123 22.2009 18.9927 21.8684 19.0556C21.4986 19.1287 21.1001 19.1894 20.6731 19.2376C20.2394 19.2862 19.8033 19.3103 19.3669 19.3099C18.3586 19.3315 17.3553 19.1631 16.4094 18.8135C15.6233 18.5177 14.9153 18.0462 14.3397 17.4351C13.7923 16.8363 13.3809 16.1265 13.1335 15.3542C12.8626 14.5065 12.7291 13.621 12.7379 12.7312Z" fill="white"/>
<path fill-rule="evenodd" clip-rule="evenodd" d="M32.8749 4.28871C32.3754 4.29319 31.8782 4.22044 31.401 4.07304C30.9595 3.93565 30.5447 3.72419 30.1743 3.4477C29.813 3.17816 29.5095 2.83891 29.2818 2.45005C29.0451 2.0404 28.9014 1.58383 28.8608 1.11262L31.0162 0.55957C31.2968 1.6986 31.9164 2.26811 32.8749 2.26811C33.8494 2.26811 34.469 1.70583 34.7335 0.581258L36.8648 1.13671C36.8078 1.60594 36.6603 2.0597 36.4306 2.47294C36.2138 2.85851 35.9183 3.19429 35.5634 3.45854C35.1923 3.73097 34.7775 3.93836 34.3367 4.07183C33.8632 4.21738 33.3703 4.2901 32.8749 4.28751V4.28871ZM38.5438 6.16594V18.7474H35.5766C35.5766 17.8325 35.5807 16.9264 35.5887 16.0292C35.5967 15.1319 35.6048 14.2978 35.6128 13.5266C35.6209 12.7571 35.6293 12.0876 35.6382 11.5181C35.647 10.9486 35.651 10.5276 35.6502 10.2553C35.1541 10.8803 34.6419 11.5699 34.1136 12.3241C33.5853 13.0784 33.0626 13.8323 32.5456 14.5857C32.0254 15.3392 31.534 16.077 31.0717 16.7991C30.6093 17.5212 30.2029 18.1707 29.8523 18.7474H27.2012V6.16473H30.149C30.149 7.09491 30.145 7.98091 30.1369 8.82273C30.1289 9.66454 30.1249 10.4305 30.1249 11.1205C30.1249 11.8105 30.1208 12.4129 30.1128 12.9278C30.1048 13.4427 30.1007 13.8359 30.1007 14.1074C30.5623 13.4198 31.0411 12.7089 31.5373 11.9747C32.0334 11.2405 32.5331 10.5268 33.0365 9.83363C33.5407 9.1356 34.0404 8.47371 34.5357 7.84797C35.0311 7.22223 35.5103 6.65994 35.9735 6.16112L38.5438 6.16594Z" fill="white"/>
<path fill-rule="evenodd" clip-rule="evenodd" d="M45.6286 11.141C46.0057 10.7682 46.4166 10.3505 46.8612 9.88787C47.3059 9.42519 47.7453 8.95849 48.1796 8.48778C48.6146 8.01787 49.0295 7.56765 49.4243 7.1371C49.8191 6.70655 50.1472 6.33785 50.4085 6.03101H53.9063C53.5445 6.45272 53.1296 6.915 52.6616 7.41784C52.1936 7.92068 51.7099 8.43597 51.2106 8.96372C50.7088 9.49066 50.2159 10.0015 49.7319 10.4963C49.2478 10.9911 48.8084 11.4329 48.4136 11.8217C48.9684 12.2853 49.4994 12.7767 50.0045 13.2941C50.5553 13.8564 51.0976 14.4484 51.6315 15.0701C52.1655 15.6918 52.6624 16.3244 53.1223 16.9678C53.5396 17.5435 53.9261 18.1407 54.2802 18.7571H50.8307C50.5187 18.2703 50.1532 17.7594 49.7343 17.2245C49.3153 16.6895 48.8759 16.1674 48.416 15.6581C47.956 15.1472 47.4876 14.6653 47.0108 14.2122C46.5763 13.794 46.1155 13.404 45.631 13.0447V18.7631H42.647V6.03101H45.6286V11.141Z" fill="white"/>
<path fill-rule="evenodd" clip-rule="evenodd" d="M66.4209 16.9786C67.1287 16.9953 67.8365 16.9465 68.5353 16.8328V13.5796C68.2973 13.5162 68.0556 13.4675 67.8116 13.4338C67.4657 13.3833 67.1166 13.3592 66.7671 13.3615C66.4297 13.3617 66.0927 13.3859 65.7587 13.4338C65.4403 13.476 65.1301 13.5658 64.8384 13.7001C64.5744 13.8217 64.3469 14.0103 64.1787 14.2471C64.005 14.509 63.9181 14.8188 63.9302 15.1327C63.8996 15.412 63.946 15.6943 64.0644 15.9492C64.1829 16.204 64.3688 16.4217 64.602 16.5786C65.1608 16.8717 65.7881 17.0099 66.4185 16.9786H66.4209ZM66.1724 6.03096C67.0243 6.00841 67.8739 6.13064 68.6848 6.39242C69.3024 6.59576 69.8615 6.94551 70.3143 7.41176C70.7289 7.86389 71.0277 8.4096 71.1852 9.00222C71.365 9.66997 71.4531 10.3591 71.4469 11.0505V18.7462C70.9821 18.8434 70.2814 18.9607 69.3446 19.098C68.2936 19.2432 67.2334 19.312 66.1724 19.3041C65.4533 19.3106 64.7357 19.2374 64.0327 19.086C63.4397 18.9639 62.877 18.7247 62.3779 18.3823C61.9207 18.0579 61.5528 17.6236 61.308 17.1196C61.0332 16.5188 60.9011 15.8628 60.9221 15.2026C60.901 14.56 61.0513 13.9234 61.3575 13.3579C61.6452 12.8587 62.0511 12.4375 62.5395 12.1313C63.07 11.8028 63.6556 11.5725 64.2679 11.4518C64.9424 11.3123 65.6296 11.2433 66.3184 11.2457C66.6674 11.2467 67.0161 11.2668 67.3629 11.306C67.7562 11.3516 68.1465 11.4204 68.5316 11.512V11.0301C68.5344 10.7024 68.4939 10.3759 68.411 10.0589C68.3312 9.75766 68.1821 9.47917 67.9756 9.24561C67.7505 8.99917 67.4685 8.81138 67.1542 8.69859C66.7423 8.55788 66.3085 8.49218 65.8733 8.5046C65.2319 8.50067 64.5913 8.54943 63.9579 8.65039C63.4764 8.7234 63.0019 8.83707 62.5395 8.99017L62.1668 6.61171C62.7126 6.443 63.2696 6.31295 63.8337 6.22253C64.6062 6.09048 65.3887 6.02637 66.1724 6.03096Z" fill="white"/>
<path fill-rule="evenodd" clip-rule="evenodd" d="M86.4015 6.03101V18.7559H83.321V8.48899H78.4059V18.7571H75.3242V6.03101H86.4015Z" fill="white"/>
<path fill-rule="evenodd" clip-rule="evenodd" d="M92.9981 17.6377C93.0082 17.902 92.9637 18.1657 92.8675 18.4121C92.7712 18.6586 92.6251 18.8826 92.4384 19.0703C92.2635 19.2488 92.0541 19.3898 91.8229 19.4849C91.5917 19.58 91.3436 19.6271 91.0936 19.6233C90.8415 19.6295 90.5908 19.5836 90.3573 19.4884C90.1238 19.3933 89.9125 19.2509 89.7367 19.0703C89.553 18.881 89.4098 18.6564 89.3156 18.4101C89.2215 18.1639 89.1785 17.901 89.1891 17.6377C89.1791 17.3723 89.2225 17.1077 89.3165 16.8594C89.4106 16.6111 89.5534 16.3841 89.7367 16.1918C89.9106 16.0078 90.1212 15.8622 90.3549 15.7647C90.5887 15.6671 90.8403 15.6197 91.0936 15.6255C91.3447 15.6223 91.5938 15.6709 91.8252 15.7684C92.0566 15.8658 92.2654 16.01 92.4384 16.1918C92.6248 16.3824 92.7705 16.6088 92.8667 16.8574C92.9629 17.1059 93.0076 17.3714 92.9981 17.6377ZM92.9981 8.23949C93.0082 8.50386 92.9637 8.76749 92.8675 9.01396C92.7712 9.26042 92.6251 9.48446 92.4384 9.67211C92.2635 9.8506 92.0541 9.99167 91.8229 10.0868C91.5917 10.1818 91.3436 10.2289 91.0936 10.2252C90.8414 10.2311 90.5907 10.185 90.3572 10.0896C90.1237 9.99423 89.9124 9.85168 89.7367 9.6709C89.553 9.48161 89.4098 9.25702 89.3156 9.01075C89.2215 8.76448 89.1785 8.50168 89.1891 8.23828C89.1794 7.97318 89.2228 7.70881 89.3169 7.46072C89.4109 7.21263 89.5536 6.98582 89.7367 6.79362C89.9107 6.6098 90.1213 6.46453 90.3551 6.36719C90.5888 6.26984 90.8404 6.2226 91.0936 6.22852C91.3446 6.22517 91.5936 6.27363 91.825 6.37087C92.0565 6.46811 92.2653 6.61203 92.4384 6.79362C92.6248 6.98429 92.7704 7.21073 92.8666 7.45925C92.9628 7.70777 93.0075 7.9732 92.9981 8.23949Z" fill="white"/>
</svg>
