<svg width="76" height="17" viewBox="0 0 76 17" fill="none" xmlns="http://www.w3.org/2000/svg">
<path fill-rule="evenodd" clip-rule="evenodd" d="M27.9074 3.1656C27.4834 3.1694 27.0613 3.10764 26.6562 2.98252C26.2815 2.86589 25.9293 2.68638 25.6149 2.45168C25.3082 2.22287 25.0506 1.93488 24.8573 1.60479C24.6564 1.25705 24.5344 0.869479 24.4999 0.46947L26.3296 0C26.5678 0.966897 27.0938 1.45035 27.9074 1.45035C28.7347 1.45035 29.2606 0.973034 29.4852 0.0184106L31.2944 0.489926C31.2459 0.888247 31.1208 1.27343 30.9258 1.62422C30.7417 1.95152 30.4909 2.23656 30.1896 2.46088C29.8746 2.69214 29.5225 2.86819 29.1483 2.98149C28.7464 3.10504 28.3279 3.16678 27.9074 3.16458V3.1656ZM32.7196 4.75914V15.4393H30.2009C30.2009 14.6627 30.2043 13.8935 30.2111 13.1319C30.2179 12.3702 30.2248 11.6621 30.2316 11.0075C30.2384 10.3543 30.2456 9.78591 30.2531 9.30246C30.2606 8.81901 30.264 8.46171 30.2633 8.23056C29.8422 8.76105 29.4074 9.34644 28.9589 9.98672C28.5105 10.627 28.0668 11.2669 27.6279 11.9065C27.1862 12.5461 26.7692 13.1724 26.3767 13.7854C25.9842 14.3984 25.6392 14.9497 25.3416 15.4393H23.0911V4.75811H25.5934C25.5934 5.54772 25.59 6.29983 25.5832 7.01443C25.5764 7.72904 25.573 8.3792 25.573 8.96493C25.573 9.55066 25.5695 10.0621 25.5627 10.4991C25.5559 10.9362 25.5525 11.27 25.5525 11.5005C25.9443 10.9168 26.3508 10.3133 26.7719 9.69011C27.1931 9.06687 27.6173 8.46103 28.0446 7.87257C28.4726 7.28003 28.8968 6.71816 29.3173 6.18698C29.7377 5.6558 30.1446 5.17849 30.5377 4.75505L32.7196 4.75914ZM18.0086 8.24683C18.1073 8.56263 18.1566 8.89175 18.155 9.22259L13.4493 9.2185C13.4915 8.90405 13.5688 8.59529 13.6796 8.29797C13.7866 8.00466 13.9462 7.73327 14.1506 7.49711C14.3574 7.26078 14.6099 7.06873 14.8929 6.93252C15.2132 6.78339 15.5635 6.7099 15.9168 6.71773C16.2515 6.70898 16.5839 6.77539 16.8895 6.91206C17.1556 7.0378 17.3911 7.22001 17.5796 7.44597C17.7735 7.68238 17.9193 7.95446 18.0086 8.24683ZM11.2418 7.84793C10.9413 8.64111 10.7957 9.48443 10.8128 10.3323C10.8053 11.0877 10.9187 11.8394 11.1486 12.559C11.3586 13.2146 11.7078 13.8171 12.1725 14.3254C12.6611 14.8442 13.2621 15.2444 13.9294 15.4955C14.7323 15.7923 15.5841 15.9353 16.44 15.9169C16.8105 15.9173 17.1807 15.8968 17.5488 15.8555C17.9113 15.8146 18.2495 15.7631 18.5635 15.7011C18.8457 15.6477 19.125 15.5794 19.4 15.4965C19.597 15.4397 19.7894 15.3679 19.9754 15.2817L19.6406 13.2484C19.2508 13.4003 18.8482 13.5171 18.4376 13.5971C17.8836 13.7114 17.319 13.7666 16.7533 13.7618C15.8957 13.8201 15.0458 13.5685 14.3584 13.053C14.0761 12.7992 13.8481 12.4909 13.6882 12.1467C13.5282 11.8026 13.4396 11.4296 13.4277 11.0504H20.644C20.6583 10.9133 20.6689 10.7592 20.6757 10.588C20.6826 10.4169 20.686 10.2631 20.686 10.1268C20.7975 8.64746 20.3455 7.18069 19.4205 6.02017C18.9663 5.55161 18.4165 5.18623 17.8084 4.94885C17.2003 4.71147 16.5482 4.60766 15.8963 4.64449C15.251 4.64657 14.6119 4.7701 14.0124 5.00861C13.4002 5.24717 12.8446 5.61088 12.3813 6.07642C11.8845 6.58307 11.4967 7.18595 11.2418 7.84793ZM3.35421 13.9623C2.96855 13.9418 2.69176 13.9176 2.52385 13.8897V11.0074H4.60743C5.21478 10.9846 5.81983 11.0938 6.38078 11.3275C6.60162 11.4289 6.78579 11.5959 6.90819 11.8056C7.03058 12.0154 7.08525 12.2577 7.06473 12.4997C7.08599 12.7513 7.02491 13.003 6.89068 13.2169C6.75645 13.4309 6.55632 13.5955 6.32037 13.6861C5.71883 13.9103 5.07914 14.0145 4.43747 13.993C4.10096 13.993 3.73987 13.9827 3.35421 13.9623ZM6.00604 8.99552C5.50732 9.191 4.97395 9.28288 4.43849 9.26554H2.52283V6.71567C2.71873 6.68772 2.98152 6.66692 3.31121 6.65328C3.6409 6.63964 3.93202 6.63283 4.18457 6.63283C4.49249 6.63238 4.80017 6.6498 5.10606 6.68499C5.37355 6.71269 5.63564 6.77883 5.8842 6.88137C6.09267 6.96667 6.27692 7.10191 6.42071 7.27515C6.56146 7.45906 6.63385 7.68612 6.62549 7.91748C6.64954 8.1395 6.60254 8.36344 6.49125 8.55712C6.37996 8.75081 6.2101 8.90428 6.00604 8.99552ZM3.13408 15.921C3.55182 15.9489 3.96546 15.9629 4.37501 15.9629H4.37604C5.73117 16.0531 7.08324 15.7467 8.26676 15.0812C8.68443 14.8106 9.02435 14.436 9.25307 13.9943C9.48179 13.5526 9.59142 13.059 9.57117 12.5621C9.61187 11.9275 9.41724 11.3001 9.02442 10.7998C8.67111 10.3934 8.22314 10.08 7.72001 9.88741C8.13404 9.69034 8.48285 9.37885 8.72511 8.98983C8.96736 8.60081 9.09291 8.15057 9.08688 7.69246C9.09854 7.24349 8.98959 6.79959 8.77135 6.40693C8.55312 6.01427 8.23358 5.68718 7.84595 5.45966C6.78796 4.87071 5.58428 4.59404 4.37501 4.66187C3.96819 4.66119 3.55455 4.67176 3.13408 4.69358C2.71361 4.7154 2.31054 4.74301 1.92488 4.77642C1.53991 4.80984 1.17882 4.85109 0.841624 4.90018C0.504429 4.94928 0.223887 5.00144 0 5.05667V15.5272C0.223887 15.5831 0.504087 15.6353 0.8406 15.6837C1.17711 15.7321 1.5382 15.7771 1.92386 15.8187C2.31293 15.8589 2.71634 15.893 3.13408 15.921ZM39.7789 7.91851C39.4014 8.31127 39.0526 8.66585 38.7325 8.98223V4.6445H36.2015V15.4525H38.7346V10.5983C39.1458 10.9033 39.5371 11.2343 39.9059 11.5894C40.3106 11.974 40.7082 12.3831 41.0987 12.8168C41.4891 13.2491 41.8621 13.6923 42.2178 14.1464C42.5734 14.6005 42.8836 15.0342 43.1485 15.4474H46.0767C45.7761 14.9242 45.448 14.4172 45.0938 13.9285C44.7034 13.3824 44.2816 12.8454 43.8283 12.3176C43.3751 11.7899 42.9147 11.2873 42.4471 10.81C42.0184 10.3708 41.5677 9.95365 41.0966 9.56012C41.4318 9.2301 41.8048 8.85507 42.2157 8.43503C42.6266 8.015 43.0451 7.58133 43.471 7.13402C43.8949 6.68603 44.3055 6.2486 44.7027 5.82175C45.1 5.3949 45.4522 5.00248 45.7593 4.6445H42.7901C42.5683 4.90497 42.2898 5.21795 41.9546 5.58344C41.6195 5.94892 41.2673 6.33111 40.898 6.73001C40.5294 7.12958 40.1564 7.52575 39.7789 7.91851Z" fill="black"/>
<path fill-rule="evenodd" clip-rule="evenodd" d="M53.3487 13.9378C53.9496 13.952 54.5504 13.9106 55.1436 13.8141V11.0525C54.9416 10.9987 54.7364 10.9573 54.5293 10.9287C54.2357 10.8859 53.9393 10.8653 53.6426 10.8673C53.3562 10.8675 53.0701 10.888 52.7866 10.9287C52.5164 10.9645 52.253 11.0407 52.0054 11.1548C51.7813 11.2579 51.5882 11.4181 51.4454 11.6191C51.2979 11.8414 51.2242 12.1044 51.2344 12.3709C51.2085 12.608 51.2479 12.8476 51.3484 13.0639C51.4489 13.2803 51.6067 13.465 51.8048 13.5983C52.2791 13.8471 52.8116 13.9644 53.3467 13.9378H53.3487ZM53.1378 4.64457C53.861 4.62544 54.5822 4.72919 55.2706 4.95141C55.7948 5.12402 56.2694 5.42092 56.6538 5.81671C57.0057 6.20052 57.2594 6.66376 57.3931 7.16682C57.5457 7.73366 57.6205 8.31862 57.6152 8.9056V15.4383C57.2207 15.5208 56.6258 15.6203 55.8306 15.7369C54.9384 15.8602 54.0385 15.9186 53.1378 15.9119C52.5274 15.9174 51.9182 15.8553 51.3215 15.7267C50.8181 15.6231 50.3404 15.42 49.9167 15.1294C49.5287 14.854 49.2163 14.4853 49.0085 14.0575C48.7752 13.5475 48.6631 12.9906 48.6809 12.4302C48.663 11.8847 48.7906 11.3443 49.0505 10.8643C49.2948 10.4405 49.6393 10.083 50.0539 9.82306C50.5043 9.54414 51.0013 9.34872 51.5211 9.24619C52.0937 9.12784 52.677 9.06923 53.2617 9.07129C53.558 9.07209 53.854 9.08916 54.1484 9.12244C54.4823 9.16114 54.8136 9.21954 55.1405 9.29734V8.88821C55.1429 8.61011 55.1085 8.33292 55.0381 8.06383C54.9704 7.8081 54.8438 7.5717 54.6685 7.37343C54.4774 7.16423 54.2381 7.00482 53.9713 6.90907C53.6216 6.78963 53.2533 6.73385 52.8839 6.7444C52.3395 6.74106 51.7957 6.78246 51.258 6.86816C50.8492 6.93014 50.4464 7.02663 50.0539 7.15659L49.7375 5.13757C50.2008 4.99435 50.6737 4.88395 51.1525 4.8072C51.8083 4.6951 52.4726 4.64068 53.1378 4.64457ZM70.3094 4.64457V15.4465H67.6944V6.7311H63.5221V15.4475H60.9061V4.64457H70.3094ZM75.7994 15.1548C75.8811 14.9456 75.9189 14.7218 75.9103 14.4973C75.9184 14.2713 75.8804 14.046 75.7988 13.835C75.7171 13.624 75.5934 13.4318 75.4352 13.27C75.2883 13.1156 75.1111 12.9933 74.9146 12.9106C74.7182 12.8278 74.5068 12.7865 74.2936 12.7892C74.0786 12.7844 73.865 12.8246 73.6666 12.9074C73.4681 12.9902 73.2893 13.1138 73.1417 13.27C72.9862 13.4332 72.8649 13.6259 72.7851 13.8367C72.7052 14.0475 72.6685 14.2721 72.6769 14.4973C72.6679 14.7209 72.7044 14.944 72.7843 15.1531C72.8642 15.3621 72.9858 15.5528 73.1417 15.7135C73.291 15.8668 73.4703 15.9876 73.6686 16.0684C73.8668 16.1492 74.0796 16.1882 74.2936 16.1829C74.5058 16.1861 74.7165 16.1462 74.9127 16.0654C75.109 15.9847 75.2867 15.865 75.4352 15.7135C75.5937 15.5542 75.7177 15.364 75.7994 15.1548ZM75.7994 7.17685C75.8811 6.96763 75.9189 6.74384 75.9103 6.51942C75.9183 6.29338 75.8803 6.06806 75.7987 5.85709C75.717 5.64613 75.5934 5.4539 75.4352 5.29205C75.2882 5.1379 75.111 5.01573 74.9145 4.93318C74.7181 4.85064 74.5067 4.8095 74.2936 4.81235C74.0787 4.80732 73.8651 4.84742 73.6667 4.93006C73.4683 5.01269 73.2894 5.13601 73.1417 5.29205C72.9864 5.4552 72.8652 5.64774 72.7854 5.85834C72.7055 6.06894 72.6687 6.29335 72.6769 6.5184C72.6679 6.74199 72.7044 6.96508 72.7843 7.17413C72.8642 7.38318 72.9858 7.57383 73.1417 7.73452C73.2909 7.88798 73.4702 8.00899 73.6685 8.08995C73.8667 8.17092 74.0795 8.21009 74.2936 8.20501C74.5058 8.20821 74.7165 8.16824 74.9127 8.08753C75.109 8.00682 75.2867 7.88706 75.4352 7.73554C75.5937 7.57625 75.7177 7.38607 75.7994 7.17685Z" fill="#FF722D"/>
</svg>
