<svg width="25" height="23" viewBox="0 0 25 23" fill="none" xmlns="http://www.w3.org/2000/svg">
<path fill-rule="evenodd" clip-rule="evenodd" d="M17.8139 13.7831C17.5258 13.6405 16.1093 12.9516 15.8452 12.8566C15.5811 12.7615 15.3891 12.714 15.197 12.9991C15.0049 13.2842 14.4528 13.9256 14.2847 14.1157C14.1167 14.3057 13.9487 14.3295 13.6605 14.1869C13.3724 14.0444 12.4441 13.7437 11.3437 12.7735C10.4872 12.0184 9.90904 11.0858 9.74094 10.8007C9.57291 10.5156 9.72306 10.3615 9.86733 10.2195C9.99688 10.092 10.1554 9.88694 10.2994 9.72063C10.4435 9.55432 10.4915 9.43554 10.5875 9.24552C10.6836 9.05544 10.6356 8.88913 10.5635 8.74659C10.4915 8.60404 9.91535 7.20237 9.67526 6.63219C9.44143 6.07691 9.20388 6.15204 9.02704 6.14334C8.85917 6.13507 8.66693 6.13332 8.47486 6.13332C8.28279 6.13332 7.9707 6.20461 7.70657 6.48965C7.4425 6.77474 6.69824 7.46375 6.69824 8.86537C6.69824 10.267 7.73061 11.6212 7.87466 11.8113C8.01871 12.0013 9.90621 14.8777 12.7963 16.1112C13.4836 16.4047 14.0203 16.5798 14.4387 16.7112C15.1289 16.9278 15.757 16.8973 16.2534 16.824C16.8069 16.7422 17.9579 16.135 18.198 15.4698C18.4381 14.8046 18.4381 14.2345 18.3661 14.1157C18.2941 13.9969 18.102 13.9256 17.8139 13.7831ZM12.5569 20.8775H12.553C10.8333 20.8768 9.14667 20.4202 7.67527 19.5571L7.3253 19.3518L3.69813 20.2923L4.6663 16.7967L4.43839 16.4384C3.47908 14.9301 2.97243 13.1869 2.97315 11.397C2.97525 6.17408 7.27446 1.92486 12.5607 1.92486C15.1205 1.92585 17.5267 2.91248 19.3361 4.70296C21.1455 6.4935 22.1414 8.87355 22.1404 11.4047C22.1383 16.628 17.8391 20.8775 12.5569 20.8775ZM20.7135 3.34242C18.5365 1.18816 15.6415 0.00120354 12.557 0C6.20169 0 1.02918 5.11237 1.02663 11.3963C1.0258 13.405 1.55672 15.3658 2.56571 17.0941L0.929932 23L7.04236 21.4152C8.72649 22.3231 10.6226 22.8016 12.5524 22.8024H12.5571H12.5572C18.9119 22.8024 24.0849 17.6894 24.0875 11.4054C24.0887 8.36011 22.8905 5.49663 20.7135 3.34242Z" fill="white"/>
</svg>
