<svg width="20" height="20" viewBox="0 0 20 20" fill="none" xmlns="http://www.w3.org/2000/svg">
<path fill-rule="evenodd" clip-rule="evenodd" d="M14.5819 11.9851C14.3331 11.8612 13.1098 11.2621 12.8817 11.1795C12.6536 11.0969 12.4878 11.0555 12.3219 11.3034C12.156 11.5513 11.6792 12.1091 11.534 12.2744C11.3889 12.4396 11.2437 12.4603 10.9949 12.3363C10.7461 12.2124 9.94436 11.9509 8.99398 11.1072C8.25429 10.4507 7.75492 9.63968 7.60975 9.39178C7.46463 9.14388 7.5943 9.00988 7.7189 8.8864C7.83078 8.7755 7.96768 8.59722 8.09209 8.4526C8.21651 8.30798 8.25798 8.20469 8.34092 8.03946C8.42386 7.87417 8.38239 7.72956 8.32016 7.6056C8.25798 7.48165 7.76037 6.2628 7.55302 5.767C7.35107 5.28414 7.14592 5.34948 6.99319 5.3419C6.84821 5.33471 6.68218 5.33319 6.5163 5.33319C6.35041 5.33319 6.08088 5.39519 5.85276 5.64305C5.6247 5.89095 4.98192 6.49009 4.98192 7.70889C4.98192 8.92774 5.87352 10.1053 5.99793 10.2705C6.12235 10.4358 7.75248 12.937 10.2485 14.0097C10.8421 14.2648 11.3056 14.4171 11.667 14.5313C12.263 14.7197 12.8055 14.6932 13.2342 14.6294C13.7122 14.5583 14.7063 14.0303 14.9137 13.4519C15.121 12.8735 15.121 12.3777 15.0588 12.2744C14.9966 12.1711 14.8307 12.1091 14.5819 11.9851ZM10.0419 18.1543H10.0385C8.55332 18.1538 7.09663 17.7567 5.82586 17.0062L5.52361 16.8276L2.391 17.6455L3.22717 14.6058L3.03033 14.2942C2.20183 12.9827 1.76425 11.4669 1.76488 9.91045C1.76669 5.36876 5.4797 1.67379 10.0452 1.67379C12.2559 1.67465 14.334 2.53259 15.8967 4.08953C17.4594 5.64652 18.3195 7.71613 18.3187 9.91711C18.3168 14.4591 14.6039 18.1543 10.0419 18.1543ZM17.086 2.90646C15.2059 1.03318 12.7056 0.00104713 10.0417 0C4.55294 0 0.085716 4.44554 0.0835157 9.90983C0.0827982 11.6565 0.541321 13.3616 1.41274 14.8644L0 20L5.279 18.6219C6.73349 19.4114 8.37109 19.8275 10.0378 19.8282H10.0418H10.0419C15.5301 19.8282 19.9978 15.3821 20 9.91774C20.001 7.26966 18.9662 4.77968 17.086 2.90646Z" fill="black"/>
</svg>
