<svg width="58" height="60" xmlns="http://www.w3.org/2000/svg">

 <g>
  <title>background</title>
  <rect fill="none" id="canvas_background" height="602" width="802" y="-1" x="-1"/>
 </g>
 <g>
  <title>Layer 1</title>
  <g id="svg_1">
   <g fill-rule="evenodd" fill="none" id="Page-1">
    <g fill-rule="nonzero" fill="rgb(0,0,0)" id="008---Pesticide">
     <path fill="#fbc02d" class="active-path" d="m38,9.92l0,4.08l-3,0l0,2l8,0l0,-2l-3,0l0,-4.08c3.43961,-0.49906 5.99335,-3.44438 6,-6.92l0,-1c0,-1.10457 -0.89543,-2 -2,-2l-10,0c-1.10457,0 -2,0.89543 -2,2l0,1c0.00665,3.47562 2.56039,6.42094 6,6.92zm-4,-7.92l10,0l0,1c0,2.76142 -2.23858,5 -5,5s-5,-2.23858 -5,-5l0,-1z" id="Shape"/>
     <path fill="#fbc02d" class="active-path" d="m8,60c4.41828,0 8,-3.58172 8,-8l0,-37.5c0,-2.48528 2.01472,-4.5 4.5,-4.5s4.5,2.01472 4.5,4.5l0,5.732c0.65585,-0.15214 1.32674,-0.22996 2,-0.232l0,-5.5c0,-3.58985 -2.91015,-6.5 -6.5,-6.5s-6.5,2.91015 -6.5,6.5l0,37.5c0,3.31371 -2.68629,6 -6,6c-3.31371,0 -6,-2.68629 -6,-6l0,-10c0,-3.989 2.893,-7.486 3.187,-7.829c0.39188,0.34065 0.98015,0.32146 1.349,-0.044l1.834,-1.834c0.18749,-0.18755 0.44181,-0.29294 0.707,-0.293l0.923,0c0.55228,0 1,-0.44772 1,-1l0,-10c0,-0.55228 -0.44772,-1 -1,-1l0,-14c-0.00006,-0.26519 -0.10545,-0.51951 -0.293,-0.707l-5,-5c-0.39238,-0.37897 -1.01608,-0.37355 -1.40182,0.01218c-0.38573,0.38574 -0.39115,1.00944 -0.01218,1.40182l4.707,4.707l0,13.586c-0.55228,0 -1,0.44772 -1,1l0,2c-0.023,0 -2.4,-0.04 -3.1,-1.447c-0.24687,-0.49429 -0.84771,-0.69487 -1.342,-0.448s-0.69487,0.84771 -0.448,1.342c1.257,2.524 4.743,2.553 4.89,2.553l0,2.592c-0.00006,0.26519 -0.10545,0.51951 -0.293,0.707l-3,3c-0.39038,0.3905 -0.39038,1.0235 0,1.414l0.052,0.052l-0.036,0.041c-0.153,0.171 -3.723,4.24 -3.723,9.194l0,10c0.00496,4.41622 3.58378,7.99504 8,8z" id="Shape"/>
     <path fill="#fbc02d" class="active-path" d="m33,18l0,2l12,0l0,-2l-1,0l-10,0l-1,0z" id="Shape"/>
     <path fill="#fbc02d" class="active-path" d="m51,22l-24,0c-3.86417,0.00441 -6.99559,3.13583 -7,7l38,0c-0.00441,-3.86417 -3.13583,-6.99559 -7,-7z" id="Shape"/>
     <path fill="#fbc02d" class="active-path" d="m20,51l38,0l0,-20l-38,0l0,20zm19,-18c2.11174,-0.00092 4.13759,0.83596 5.633,2.327c0.008,0.007 0.017,0.009 0.024,0.016s0.009,0.016 0.016,0.024c3.06574,3.13155 3.03911,8.14747 -0.05971,11.24629c-3.09882,3.09882 -8.11474,3.12545 -11.24629,0.05971c-0.008,-0.007 -0.017,-0.009 -0.024,-0.016s-0.009,-0.016 -0.016,-0.024c-2.27815,-2.29051 -2.95396,-5.72697 -1.71283,-8.70958c1.24113,-2.98261 4.15529,-4.9252 7.38583,-4.92342z" id="Shape"/>
     <path fill="#fbc02d" class="active-path" d="m20,55c0,1.65685 1.34315,3 3,3l32,0c1.65685,0 3,-1.34315 3,-3l0,-2l-38,0l0,2z" id="Shape"/>
     <path fill="#fbc02d" class="active-path" d="m42.471,36.115c-2.38274,-1.70227 -5.64696,-1.43226 -7.71761,0.63839s-2.34066,5.33487 -0.63839,7.71761l8.356,-8.356z" id="Shape"/>
     <path fill="#fbc02d" class="active-path" d="m39,47c2.24549,0.00386 4.30455,-1.24849 5.33389,-3.24417c1.02934,-1.99567 0.85605,-4.39943 -0.44889,-6.22683l-8.356,8.356c1.01217,0.72503 2.22595,1.11494 3.471,1.115z" id="Shape"/>
    </g>
   </g>
  </g>
 </g>
</svg>